<?xml version="1.0" encoding="utf-8"?>
<!-- Generator: Adobe Illustrator 16.0.0, SVG Export Plug-In . SVG Version: 6.00 Build 0)  -->
<!DOCTYPE svg PUBLIC "-//W3C//DTD SVG 1.1//EN" "http://www.w3.org/Graphics/SVG/1.1/DTD/svg11.dtd">
<svg version="1.1" id="Capa_1" xmlns="http://www.w3.org/2000/svg" xmlns:xlink="http://www.w3.org/1999/xlink" x="0px" y="0px"
	 width="24px" height="24px" viewBox="0 0 24 24" enable-background="new 0 0 24 24" xml:space="preserve">
<circle fill="#FFFFFF" stroke="#FFFFFF" stroke-miterlimit="10" cx="12.001" cy="10.25" r="9"/>
<g id="Capa_1_1_" display="none">
	<circle display="inline" fill="#9A7D22" cx="12" cy="10.4" r="10"/>
</g>
<g id="Capa_3">
	<path fill="#B5343A" d="M11.997,0.001L11.997,0.001c-5.66-0.085-10.315,4.434-10.4,10.093c0,0.044,0,0.089,0,0.133
		c0,3.126,1.311,5.527,3.563,7.753c2.972,2.929,5.813,5.599,5.813,5.599c0.311,0.3,0.736,0.45,1.167,0.412v-0.412l0,0V24
		c0.367-0.079,0.715-0.232,1.021-0.455c0,0,2.741-2.74,5.696-5.652c2.254-2.221,3.547-4.533,3.547-7.677
		C22.376,4.547,17.759-0.027,12.09,0C12.06,0,12.028,0,11.997,0.001z M11.997,19c-4.946,0.003-8.957-4.004-8.959-8.949
		c-0.003-4.945,4.003-8.956,8.948-8.959c4.944-0.002,8.956,4.003,8.958,8.949c0,0.003,0,0.007,0,0.011
		C20.939,14.995,16.936,19,11.991,19H11.997z"/>
</g>
<line fill="none" stroke="#B5343A" stroke-width="0.25" stroke-linecap="round" stroke-linejoin="round" stroke-miterlimit="10" x1="12.024" y1="3.053" x2="12.024" y2="6.784"/>
<path fill="#B5343A" d="M12.348,3.034c0,0,1.044,0.615,2.232-0.368c0,0,0.9,0.025,0.98,0.278c0.082,0.254,0,1.973,0,1.973
	s-0.723-0.573-1.59,0c0,0-0.746,0.531-1.625,0"/>
<rect x="6.772" y="6.784" fill="#B5343A" stroke="#B5343A" stroke-width="0.25" stroke-linecap="round" stroke-linejoin="round" stroke-miterlimit="10" width="10.4" height="8.509"/>
<line fill="none" stroke="#B5343A" stroke-width="0.5" stroke-linecap="round" stroke-linejoin="round" stroke-miterlimit="10" x1="5.472" y1="15.293" x2="18.473" y2="15.293"/>
<line fill="none" stroke="#B5343A" stroke-width="0.5" stroke-linecap="round" stroke-linejoin="round" stroke-miterlimit="10" x1="7.097" y1="6.931" x2="16.85" y2="6.931"/>
<path fill="#FFFFFF" d="M7.937,12.254l0.024,0.085c0.016,0.045,0.024,0.094,0.026,0.142v0.008c-0.034,0.066-0.072,0.133-0.113,0.195
	l-0.026,0.045c-0.04,0.072-0.029,0.16,0.026,0.222c0.17,0.175,0.389,0.294,0.628,0.343c0.016,0.003,0.031,0.003,0.047,0
	c0.086,0,0.161-0.059,0.182-0.143c0.027-0.098-0.03-0.2-0.129-0.227c-0.003-0.001-0.005-0.002-0.008-0.003
	c-0.122-0.027-0.236-0.076-0.341-0.145c0.046-0.062,0.084-0.13,0.114-0.201c0.002-0.029,0.002-0.059,0-0.087
	c-0.002-0.082-0.015-0.164-0.037-0.243l-0.027-0.089c0-0.034-0.021-0.069-0.029-0.103c0-0.01,0-0.02,0-0.029
	c-0.086-0.195-0.131-0.405-0.132-0.618c0-0.809,0.644-1.47,1.451-1.494c0.809,0.023,1.454,0.685,1.454,1.494
	c0,0.221-0.049,0.438-0.142,0.639c-0.019,0.069-0.04,0.132-0.056,0.195c-0.025,0.081-0.039,0.164-0.04,0.248
	c-0.002,0.031-0.002,0.062,0,0.093v0.026c0.026,0.066,0.059,0.13,0.098,0.189c-0.08,0.055-0.169,0.095-0.264,0.119
	c-0.099,0.033-0.154,0.138-0.124,0.237c0.032,0.1,0.138,0.155,0.237,0.124c0.202-0.053,0.385-0.162,0.528-0.314
	c0.055-0.06,0.065-0.149,0.026-0.221l-0.029-0.048c-0.023-0.037-0.089-0.148-0.111-0.192v-0.014c0.001-0.047,0.009-0.095,0.024-0.14
	l0.048-0.169c0.11-0.243,0.167-0.507,0.166-0.773c-0.002-1.023-0.825-1.855-1.848-1.872c-1.034,0.025-1.853,0.884-1.828,1.918
	c0.006,0.249,0.061,0.494,0.163,0.721C7.919,12.188,7.929,12.225,7.937,12.254z"/>
<path fill="#FFFFFF" d="M10.556,13.321c-0.068-0.029-0.146-0.021-0.207,0.021c-0.234,0.158-0.509,0.245-0.792,0.248
	C9.274,13.578,9,13.486,8.766,13.326c-0.06-0.038-0.136-0.04-0.198-0.005l0,0c-1.172,0.58-1.658,2.141-1.555,2.444
	c0.014,0.037,0.039,0.07,0.071,0.096c0.74,0.49,1.602,0.765,2.489,0.791c0.891-0.009,1.759-0.284,2.492-0.791
	c0.031-0.026,0.055-0.061,0.068-0.099C12.224,15.462,11.738,13.901,10.556,13.321z M10.479,13.709
	c0.105,0.058,0.204,0.126,0.296,0.203l-0.546,0.597l-0.39-0.564c0.226-0.041,0.443-0.123,0.641-0.24V13.709z M8.645,13.709
	c0.199,0.116,0.417,0.195,0.645,0.235l-0.391,0.56l-0.551-0.598c0.093-0.076,0.192-0.145,0.298-0.202V13.709z M9.563,16.286
	c-0.78-0.026-1.54-0.261-2.201-0.677c0.121-0.567,0.395-1.092,0.792-1.516l0.657,0.716c0.025,0.026,0.061,0.042,0.098,0.043l0,0
	c0.04-0.003,0.077-0.023,0.101-0.056l0.543-0.792l0.542,0.792c0.023,0.032,0.06,0.053,0.1,0.056l0,0
	c0.037-0.001,0.072-0.017,0.098-0.043l0.657-0.716c0.397,0.422,0.671,0.946,0.792,1.514c-0.646,0.427-1.401,0.661-2.177,0.673
	V16.286z"/>
<path fill="#FFFFFF" d="M10.743,8.67c-0.001-0.088-0.073-0.159-0.16-0.159c-0.088-0.001-0.161,0.068-0.161,0.156
	c0,0.001,0,0.002,0,0.003v1.234l0.321,0.322V8.67z"/>
<path fill="#FFFFFF" d="M11.437,11.447V8.67c-0.001-0.088-0.073-0.159-0.161-0.159c-0.087-0.001-0.16,0.068-0.161,0.156
	c0,0.001,0,0.002,0,0.003v2.375C11.238,11.167,11.346,11.301,11.437,11.447z"/>
<path fill="#FFFFFF" d="M11.799,8.67v5.57c0,0.088,0.072,0.161,0.161,0.161l0,0c0.088-0.003,0.16-0.073,0.16-0.161V8.67
	c0-0.088-0.072-0.159-0.16-0.159C11.872,8.51,11.8,8.58,11.799,8.667C11.799,8.668,11.799,8.669,11.799,8.67z"/>
<path fill="#FFFFFF" d="M12.696,7.693c-0.002,0-0.004,0-0.005,0h-0.088V7.07c0-0.164-0.132-0.296-0.296-0.296h-2.225
	c-0.163,0-0.295,0.132-0.295,0.296v0.623h-0.1c-0.163,0-0.296,0.132-0.296,0.295v1.804h0.32c0.035,0,0.071,0,0.108,0V8.11h0.396
	V7.192h1.982V8.11h0.386v1.993c0,0.116,0.093,0.209,0.208,0.209c0.115,0,0.209-0.093,0.209-0.209V7.992
	C12.998,7.825,12.862,7.691,12.696,7.693z"/>
<g>
	<path fill="#FFFFFF" d="M12.937,11.167h3.128c0.06,0,0.108-0.049,0.108-0.108s-0.049-0.108-0.108-0.108h-3.128
		c-0.061,0-0.108,0.049-0.108,0.108S12.876,11.167,12.937,11.167L12.937,11.167z"/>
	<path fill="#FFFFFF" d="M12.937,11.686h3.128c0.06,0,0.108-0.049,0.108-0.108c0-0.06-0.049-0.108-0.108-0.108h-3.128
		c-0.061,0-0.108,0.048-0.108,0.108C12.828,11.637,12.876,11.686,12.937,11.686z"/>
	<path fill="#FFFFFF" d="M16.688,10.226h-4.376c-0.173,0-0.313,0.14-0.313,0.312v3.115c0,0.174,0.14,0.313,0.313,0.313l0,0h1.323
		v-0.219h-1.323c-0.053,0-0.095-0.041-0.096-0.094v-3.115c0.001-0.052,0.043-0.094,0.096-0.094h4.376
		c0.052,0,0.094,0.042,0.095,0.094v3.115c-0.001,0.053-0.043,0.094-0.095,0.094h-1.323v0.219h1.323c0.172,0,0.312-0.139,0.312-0.313
		l0,0v-3.115C17,10.365,16.86,10.226,16.688,10.226L16.688,10.226z"/>
	<path fill="#FFFFFF" d="M15.385,13.047c0.092-0.037,0.137-0.141,0.101-0.232c-0.019-0.047-0.055-0.082-0.101-0.102
		c-0.075-0.045-0.104-0.139-0.07-0.218c0.056-0.082,0.034-0.194-0.048-0.249c-0.044-0.029-0.098-0.038-0.148-0.024
		c-0.087,0.007-0.166-0.051-0.187-0.136c-0.004-0.097-0.087-0.173-0.185-0.168c-0.048,0.002-0.094,0.024-0.125,0.06
		c-0.044,0.037-0.103,0.053-0.16,0.042c-0.028-0.005-0.056-0.018-0.077-0.037c-0.063-0.076-0.175-0.087-0.251-0.025
		c-0.039,0.032-0.063,0.079-0.065,0.129c-0.021,0.085-0.1,0.143-0.187,0.136c-0.096-0.024-0.193,0.032-0.218,0.129
		c-0.013,0.048-0.005,0.099,0.021,0.141c0.035,0.08,0.006,0.171-0.066,0.218c-0.092,0.037-0.137,0.141-0.101,0.232
		c0.019,0.045,0.055,0.082,0.101,0.1c0.075,0.045,0.105,0.139,0.07,0.219c-0.034,0.063-0.032,0.139,0.006,0.199
		c0.032,0.041,0.079,0.066,0.131,0.07v1.031c-0.001,0.072,0.039,0.139,0.103,0.172c0.063,0.035,0.141,0.031,0.201-0.01l0.365-0.25
		c0.004-0.004,0.009-0.004,0.013,0l0.365,0.252c0.032,0.023,0.071,0.035,0.111,0.035c0.031,0,0.062-0.008,0.09-0.021
		c0.064-0.033,0.104-0.102,0.104-0.174v-1.031c0.051-0.004,0.098-0.029,0.128-0.068l0,0c0.035-0.063,0.035-0.137,0-0.197
		C15.271,13.186,15.306,13.088,15.385,13.047z M14.992,14.564c0,0.004-0.002,0.008-0.006,0.01c-0.003,0.002-0.008,0.002-0.011,0
		l-0.366-0.252c-0.066-0.045-0.153-0.045-0.22,0l-0.366,0.25c-0.003,0.002-0.008,0.002-0.011,0c-0.002-0.004-0.002-0.008,0-0.01
		v-0.99c0.031,0.023,0.053,0.059,0.063,0.096c0.005,0.098,0.088,0.174,0.186,0.168c0.047-0.002,0.092-0.023,0.124-0.061
		c0.032-0.031,0.076-0.049,0.121-0.049c0.045-0.002,0.089,0.014,0.122,0.045l0,0c0.048,0.049,0.119,0.068,0.186,0.051
		c0.066-0.025,0.113-0.088,0.122-0.158c0.009-0.039,0.031-0.074,0.063-0.098L14.992,14.564z M14.505,13.457
		c-0.319,0.002-0.58-0.258-0.581-0.576c-0.002-0.32,0.257-0.581,0.576-0.582c0.32-0.002,0.58,0.257,0.582,0.576
		c0,0.002,0,0.004,0,0.004C15.082,13.197,14.823,13.457,14.505,13.457c-0.002,0-0.004,0-0.005,0H14.505z"/>
	<polygon fill="#FFFFFF" points="14.607,12.766 14.5,12.549 14.393,12.766 14.152,12.801 14.327,12.969 14.285,13.209 14.5,13.096 
		14.715,13.209 14.673,12.969 14.848,12.801 	"/>
</g>
</svg>
