<?xml version="1.0" encoding="utf-8"?>
<!-- Generator: Adobe Illustrator 16.0.0, SVG Export Plug-In . SVG Version: 6.00 Build 0)  -->
<!DOCTYPE svg PUBLIC "-//W3C//DTD SVG 1.1//EN" "http://www.w3.org/Graphics/SVG/1.1/DTD/svg11.dtd">
<svg version="1.1" id="Capa_1" xmlns="http://www.w3.org/2000/svg" xmlns:xlink="http://www.w3.org/1999/xlink" x="0px" y="0px"
	 width="24px" height="24px" viewBox="0 0 24 24" enable-background="new 0 0 24 24" xml:space="preserve">
<circle fill="#FFFFFF" stroke="#FFFFFF" stroke-miterlimit="10" cx="12.001" cy="10.25" r="9"/>
<g id="Capa_1_1_" display="none">
	<circle display="inline" fill="#9A7D22" cx="12" cy="10.4" r="10"/>
</g>
<g id="Capa_3">
	<path fill="#B5343A" d="M11.997,0.001L11.997,0.001c-5.66-0.085-10.315,4.434-10.4,10.093c0,0.044,0,0.089,0,0.133
		c0,3.126,1.311,5.527,3.563,7.753c2.972,2.929,5.813,5.599,5.813,5.599c0.311,0.3,0.736,0.45,1.167,0.412v-0.412l0,0V24
		c0.367-0.079,0.715-0.232,1.021-0.455c0,0,2.741-2.74,5.696-5.652c2.254-2.221,3.547-4.533,3.547-7.677
		C22.376,4.547,17.759-0.027,12.09,0C12.06,0,12.028,0,11.997,0.001z M11.997,19c-4.946,0.003-8.957-4.004-8.959-8.949
		c-0.003-4.945,4.003-8.956,8.948-8.959c4.944-0.002,8.956,4.003,8.958,8.949c0,0.003,0,0.007,0,0.011
		C20.939,14.995,16.936,19,11.991,19H11.997z"/>
</g>
<line fill="none" stroke="#B5343A" stroke-width="0.25" stroke-linecap="round" stroke-linejoin="round" stroke-miterlimit="10" x1="12.024" y1="3.053" x2="12.024" y2="6.784"/>
<path fill="#B5343A" d="M12.348,3.034c0,0,1.044,0.615,2.232-0.368c0,0,0.9,0.025,0.98,0.278c0.082,0.254,0,1.973,0,1.973
	s-0.722-0.573-1.59,0c0,0-0.746,0.531-1.625,0"/>
<rect x="6.772" y="6.883" fill="#B5343A" stroke="#B5343A" stroke-width="0.25" stroke-linecap="round" stroke-linejoin="round" stroke-miterlimit="10" width="10.4" height="8.232"/>
<line fill="none" stroke="#B5343A" stroke-width="0.5" stroke-linecap="round" stroke-linejoin="round" stroke-miterlimit="10" x1="5.472" y1="15.293" x2="18.473" y2="15.293"/>
<line fill="none" stroke="#B5343A" stroke-width="0.5" stroke-linecap="round" stroke-linejoin="round" stroke-miterlimit="10" x1="7.097" y1="6.931" x2="16.85" y2="6.931"/>
<path fill="#FFFFFF" d="M9.394,12.317H8.675c-0.1,0-0.182-0.081-0.182-0.182v-1.153c0-0.18,0.146-0.325,0.325-0.325
	c0.001,0,0.001,0,0.002,0h0.43c0.18,0,0.325,0.146,0.325,0.325l0,0v1.153C9.576,12.236,9.494,12.317,9.394,12.317L9.394,12.317z"/>
<path fill="#FFFFFF" d="M12.105,12.317h-0.722c-0.099,0-0.179-0.08-0.179-0.179c0-0.001,0-0.002,0-0.003v-1.885
	c0-0.179,0.145-0.324,0.325-0.324l0,0h0.43c0.18,0,0.324,0.146,0.324,0.324l0,0v1.885C12.283,12.235,12.204,12.316,12.105,12.317z"
	/>
<path fill="#FFFFFF" d="M10.749,12.317h-0.711c-0.099,0-0.179-0.08-0.179-0.179c0-0.001,0-0.002,0-0.003V9.239
	c-0.002-0.18,0.143-0.326,0.322-0.327c0.001,0,0.001,0,0.002,0h0.43c0.18,0,0.325,0.146,0.325,0.324c0,0.001,0,0.002,0,0.003v2.897
	c0.001,0.099-0.077,0.181-0.176,0.182C10.758,12.318,10.753,12.318,10.749,12.317z"/>
<path fill="#FFFFFF" d="M14.731,8.05c0-0.253-0.18-0.459-0.403-0.46H7.403C7.18,7.591,7,7.796,7,8.05v5.021h0.308V12.96h6.41
	l0.041-0.039c-0.108-0.068-0.208-0.154-0.294-0.257c-0.009-0.015-0.019-0.03-0.026-0.048H7.302V8.044
	c-0.001-0.059,0.04-0.109,0.092-0.11c0.003,0,0.006,0,0.009,0h6.932c0.053,0,0.095,0.048,0.095,0.107c0,0.001,0,0.001,0,0.002v0.313
	h0.302V8.05z"/>
<path fill="#FFFFFF" d="M12.906,10.933l0.022,0.082c0.017,0.044,0.025,0.091,0.027,0.138l0,0c0,0-0.052,0.093-0.111,0.19
	l-0.025,0.045c-0.04,0.069-0.03,0.156,0.025,0.212c0.165,0.17,0.378,0.287,0.609,0.335h0.043c0.103-0.004,0.182-0.089,0.179-0.19
	c-0.004-0.079-0.056-0.148-0.133-0.17c-0.116-0.025-0.229-0.072-0.329-0.138c0.041-0.065,0.075-0.136,0.1-0.21
	c0.002-0.029,0.002-0.059,0-0.089c-0.002-0.08-0.015-0.16-0.039-0.235l-0.023-0.087c0-0.033-0.02-0.066-0.026-0.1
	c-0.008-0.033,0-0.021,0-0.028c-0.085-0.185-0.131-0.384-0.137-0.585c-0.046-0.777,0.545-1.444,1.321-1.491
	c0.778-0.047,1.445,0.544,1.492,1.321c0.003,0.057,0.003,0.113,0,0.17c-0.001,0.214-0.047,0.426-0.139,0.621
	c-0.021,0.064-0.037,0.128-0.057,0.19c-0.023,0.078-0.037,0.158-0.038,0.24c-0.002,0.03-0.002,0.061,0,0.09v0.026
	c0.025,0.064,0.057,0.125,0.092,0.184c-0.074,0.051-0.156,0.089-0.242,0.115c-0.096,0.027-0.15,0.126-0.122,0.222
	c0.001,0.001,0.001,0.004,0.002,0.005c0.03,0.097,0.134,0.15,0.23,0.12c0.195-0.052,0.371-0.157,0.511-0.304
	c0.055-0.058,0.064-0.145,0.023-0.212l-0.026-0.046c-0.022-0.039-0.086-0.146-0.107-0.187v-0.013
	c0.002-0.046,0.01-0.093,0.023-0.138c0.019-0.062,0.035-0.123,0.046-0.164c0.107-0.236,0.162-0.491,0.161-0.749
	c0.038-0.98-0.727-1.804-1.705-1.841c-0.98-0.037-1.804,0.727-1.842,1.706c-0.001,0.045-0.001,0.089,0,0.135
	c0.001,0.252,0.053,0.501,0.151,0.733L12.906,10.933z"/>
<path fill="#FFFFFF" d="M15.464,12.178c-0.066-0.027-0.142-0.02-0.199,0.021c-0.227,0.153-0.493,0.235-0.768,0.24
	c-0.273-0.014-0.539-0.102-0.768-0.256c-0.056-0.034-0.129-0.034-0.187,0l0,0c-1.132,0.563-1.603,2.07-1.503,2.366
	c0.013,0.038,0.037,0.07,0.069,0.095c0.716,0.475,1.55,0.741,2.408,0.767c0.861-0.015,1.701-0.288,2.406-0.783
	c0.03-0.024,0.053-0.057,0.065-0.094C17.08,14.254,16.609,12.744,15.464,12.178z M14.49,15.047c-0.757-0.023-1.491-0.25-2.131-0.654
	c0.118-0.549,0.383-1.057,0.768-1.467l0.637,0.692c0.022,0.028,0.058,0.044,0.095,0.043l0,0c0.038-0.003,0.074-0.024,0.097-0.056
	l0.524-0.767l0.526,0.767c0.021,0.032,0.057,0.053,0.096,0.056l0,0c0.035,0,0.07-0.016,0.094-0.043l0.638-0.692
	c0.383,0.41,0.648,0.918,0.766,1.467c-0.623,0.413-1.352,0.64-2.098,0.654H14.49z"/>
<path fill="#FFFFFF" d="M15.104,9.448c-0.026-0.043-0.075-0.068-0.125-0.062c-0.052,0.008-0.091,0.046-0.103,0.095
	c-0.161,0.716-0.635,0.767-1.023,0.79c-0.222,0.018-0.475,0.041-0.475,0.286c0,0.616,0.495,1.363,1.112,1.363
	c0.615,0,1.113-0.747,1.113-1.363C15.614,10.373,15.257,9.722,15.104,9.448z M14.501,11.675c-0.461,0-0.87-0.625-0.874-1.118
	c0.084-0.027,0.17-0.042,0.256-0.043c0.341-0.028,0.883-0.076,1.145-0.695c0.14,0.235,0.253,0.483,0.343,0.742
	C15.37,11.048,14.959,11.675,14.501,11.675z"/>
</svg>
