<?xml version="1.0" encoding="utf-8"?>
<!-- Generator: Adobe Illustrator 16.0.0, SVG Export Plug-In . SVG Version: 6.00 Build 0)  -->
<!DOCTYPE svg PUBLIC "-//W3C//DTD SVG 1.1//EN" "http://www.w3.org/Graphics/SVG/1.1/DTD/svg11.dtd">
<svg version="1.1" id="Capa_1" xmlns="http://www.w3.org/2000/svg" xmlns:xlink="http://www.w3.org/1999/xlink" x="0px" y="0px"
	 width="24px" height="24px" viewBox="0 0 24 24" enable-background="new 0 0 24 24" xml:space="preserve">
<circle fill="#FFFFFF" stroke="#FFFFFF" stroke-miterlimit="10" cx="12.001" cy="10.25" r="9"/>
<g id="Capa_1_1_" display="none">
	<circle display="inline" fill="#9A7D22" cx="12" cy="10.4" r="10"/>
</g>
<g id="Capa_3">
	<path fill="#B5343A" d="M11.997,0.001L11.997,0.001c-5.66-0.085-10.315,4.434-10.4,10.093c0,0.044,0,0.089,0,0.133
		c0,3.126,1.311,5.527,3.563,7.753c2.972,2.929,5.813,5.599,5.813,5.599c0.311,0.3,0.736,0.45,1.167,0.412v-0.412l0,0V24
		c0.367-0.079,0.715-0.232,1.021-0.455c0,0,2.741-2.74,5.696-5.652c2.254-2.221,3.547-4.533,3.547-7.677
		C22.376,4.547,17.759-0.027,12.09,0C12.06,0,12.028,0,11.997,0.001z M11.997,19c-4.946,0.003-8.957-4.004-8.959-8.949
		c-0.003-4.945,4.003-8.956,8.948-8.959c4.944-0.002,8.956,4.003,8.958,8.949c0,0.003,0,0.007,0,0.011
		C20.939,14.995,16.936,19,11.991,19H11.997z"/>
</g>
<line fill="none" stroke="#B5343A" stroke-width="0.25" stroke-linecap="round" stroke-linejoin="round" stroke-miterlimit="10" x1="12.024" y1="3.053" x2="12.024" y2="6.784"/>
<path fill="#B5343A" d="M12.348,3.034c0,0,1.044,0.615,2.232-0.368c0,0,0.9,0.025,0.98,0.278c0.082,0.254,0,1.973,0,1.973
	s-0.722-0.573-1.59,0c0,0-0.746,0.531-1.625,0"/>
<rect x="6.772" y="6.784" fill="#B5343A" stroke="#B5343A" stroke-width="0.25" stroke-linecap="round" stroke-linejoin="round" stroke-miterlimit="10" width="10.4" height="8.509"/>
<line fill="none" stroke="#B5343A" stroke-width="0.5" stroke-linecap="round" stroke-linejoin="round" stroke-miterlimit="10" x1="5.472" y1="15.293" x2="18.473" y2="15.293"/>
<line fill="none" stroke="#B5343A" stroke-width="0.5" stroke-linecap="round" stroke-linejoin="round" stroke-miterlimit="10" x1="7.097" y1="6.931" x2="16.85" y2="6.931"/>
<g>
	<path fill-rule="evenodd" clip-rule="evenodd" fill="#FFFFFF" d="M15.109,10.868c-0.014,0.014-0.028,0.026-0.04,0.042
		c-0.208,0.277-0.415,0.555-0.623,0.832c-0.15,0.2-0.359,0.197-0.509-0.004c-0.208-0.277-0.417-0.554-0.626-0.83
		c-0.01-0.014-0.023-0.024-0.05-0.053c-0.002,0.05-0.005,0.077-0.005,0.104c0,0.511,0,1.021,0,1.532
		c0,0.104-0.029,0.134-0.132,0.135c-0.121,0-0.242,0.001-0.363,0c-0.101-0.001-0.131-0.031-0.131-0.13c0-0.835,0-1.67,0.001-2.504
		c0-0.191,0.139-0.322,0.329-0.331c0.172-0.008,0.284,0.063,0.378,0.203c0.269,0.402,0.546,0.798,0.82,1.197
		c0.012,0.018,0.027,0.031,0.049,0.056c0.075-0.107,0.145-0.208,0.214-0.309c0.229-0.335,0.458-0.672,0.687-1.008
		c0.091-0.135,0.246-0.167,0.429-0.121c0.148,0.037,0.23,0.159,0.23,0.32c0,0.832,0,1.664,0,2.497c0,0.098-0.032,0.129-0.131,0.131
		c-0.123,0.001-0.247,0-0.37,0c-0.108-0.001-0.136-0.028-0.136-0.139c-0.001-0.509-0.001-1.017-0.001-1.524c0-0.029,0-0.058,0-0.086
		C15.123,10.874,15.116,10.871,15.109,10.868z"/>
	<path fill-rule="evenodd" clip-rule="evenodd" fill="#FFFFFF" d="M7.638,11.733c0,0.041,0,0.07,0,0.099c0,0.228,0,0.454,0,0.682
		c0,0.072-0.034,0.111-0.103,0.112c-0.143,0.003-0.285,0.002-0.428,0c-0.07,0-0.105-0.04-0.106-0.109c0-0.015,0-0.029,0-0.044
		c0-0.81,0-1.62,0-2.43C7,9.931,7.014,9.819,7.11,9.75c0.058-0.042,0.132-0.081,0.2-0.083c0.326-0.008,0.653-0.01,0.979-0.001
		c0.291,0.007,0.556,0.096,0.766,0.307c0.222,0.224,0.295,0.502,0.274,0.81c-0.011,0.158-0.052,0.31-0.136,0.445
		c-0.167,0.268-0.419,0.413-0.722,0.472c-0.123,0.023-0.25,0.027-0.375,0.032C7.948,11.737,7.799,11.733,7.638,11.733z
		 M7.645,11.153c0.226,0,0.445,0.006,0.664-0.004c0.099-0.004,0.189-0.057,0.259-0.132c0.138-0.15,0.153-0.327,0.086-0.508
		c-0.067-0.182-0.226-0.253-0.407-0.265c-0.176-0.011-0.353-0.003-0.529-0.009c-0.067-0.002-0.08,0.024-0.08,0.084
		c0.003,0.253,0.001,0.507,0.001,0.761C7.64,11.107,7.643,11.133,7.645,11.153z"/>
	<path fill-rule="evenodd" clip-rule="evenodd" fill="#FFFFFF" d="M11.934,12.627c-0.068,0-0.135-0.001-0.203,0.001
		c-0.062,0.001-0.101-0.028-0.124-0.082c-0.072-0.166-0.146-0.331-0.214-0.498c-0.022-0.054-0.05-0.076-0.112-0.075
		c-0.392,0.003-0.783,0.003-1.175,0c-0.054,0-0.081,0.015-0.102,0.066c-0.065,0.158-0.137,0.313-0.205,0.47
		c-0.042,0.098-0.07,0.118-0.175,0.118c-0.119,0-0.237,0.001-0.355,0c-0.109-0.001-0.143-0.054-0.098-0.153
		c0.336-0.75,0.671-1.5,1.007-2.25c0.051-0.114,0.101-0.229,0.157-0.341c0.083-0.167,0.224-0.229,0.404-0.22
		c0.165,0.008,0.276,0.094,0.343,0.238c0.104,0.22,0.202,0.443,0.302,0.665c0.151,0.337,0.3,0.674,0.451,1.011
		c0.134,0.299,0.269,0.598,0.402,0.897c0.045,0.104,0.013,0.151-0.099,0.153C12.069,12.628,12.001,12.627,11.934,12.627
		L11.934,12.627z M10.707,10.438c-0.008,0-0.017,0-0.025,0c-0.136,0.323-0.272,0.646-0.412,0.976c0.29,0,0.562,0,0.85,0
		C10.979,11.082,10.842,10.76,10.707,10.438z"/>
	<path fill-rule="evenodd" clip-rule="evenodd" fill="#FFFFFF" d="M17,11.241c0,0.406,0,0.813,0,1.22
		c0,0.148-0.011,0.158-0.162,0.158c-0.121,0-0.242,0.001-0.362,0c-0.083-0.001-0.112-0.026-0.112-0.106
		c0-0.842-0.001-1.684,0.001-2.525c0-0.184,0.145-0.325,0.32-0.324c0.175,0.001,0.314,0.146,0.314,0.33
		C17,10.409,17,10.825,17,11.241z"/>
</g>
</svg>
