<?xml version="1.0" encoding="utf-8"?>
<!-- Generator: Adobe Illustrator 16.0.0, SVG Export Plug-In . SVG Version: 6.00 Build 0)  -->
<!DOCTYPE svg PUBLIC "-//W3C//DTD SVG 1.1//EN" "http://www.w3.org/Graphics/SVG/1.1/DTD/svg11.dtd">
<svg version="1.1" id="Capa_1" xmlns="http://www.w3.org/2000/svg" xmlns:xlink="http://www.w3.org/1999/xlink" x="0px" y="0px"
	 width="24px" height="24px" viewBox="0 0 24 24" enable-background="new 0 0 24 24" xml:space="preserve">
<circle fill="#FFFFFF" stroke="#FFFFFF" stroke-miterlimit="10" cx="12.001" cy="10.25" r="9"/>
<g id="Capa_1_1_" display="none">
	<circle display="inline" fill="#9A7D22" cx="12" cy="10.4" r="10"/>
</g>
<g id="Capa_3">
	<path fill="#B5343A" d="M11.997,0.001L11.997,0.001c-5.66-0.085-10.315,4.434-10.4,10.093c0,0.044,0,0.089,0,0.133
		c0,3.126,1.311,5.527,3.563,7.753c2.972,2.929,5.813,5.599,5.813,5.599c0.311,0.3,0.736,0.45,1.167,0.412v-0.412l0,0V24
		c0.367-0.079,0.715-0.232,1.021-0.455c0,0,2.741-2.74,5.696-5.652c2.254-2.221,3.547-4.533,3.547-7.677
		C22.376,4.547,17.759-0.027,12.09,0C12.06,0,12.028,0,11.997,0.001z M11.997,19c-4.946,0.003-8.957-4.004-8.959-8.949
		c-0.003-4.945,4.003-8.956,8.948-8.959c4.944-0.002,8.956,4.003,8.958,8.949c0,0.003,0,0.007,0,0.011
		C20.939,14.995,16.936,19,11.991,19H11.997z"/>
</g>
<line fill="none" stroke="#B5343A" stroke-width="0.25" stroke-linecap="round" stroke-linejoin="round" stroke-miterlimit="10" x1="12.024" y1="3.053" x2="12.024" y2="6.784"/>
<path fill="#B5343A" d="M12.348,3.034c0,0,1.044,0.615,2.232-0.368c0,0,0.9,0.025,0.98,0.278c0.082,0.254,0,1.973,0,1.973
	s-0.722-0.573-1.59,0c0,0-0.746,0.531-1.625,0"/>
<rect x="6.772" y="6.883" fill="#B5343A" stroke="#B5343A" stroke-width="0.25" stroke-linecap="round" stroke-linejoin="round" stroke-miterlimit="10" width="10.4" height="8.232"/>
<line fill="none" stroke="#B5343A" stroke-width="0.5" stroke-linecap="round" stroke-linejoin="round" stroke-miterlimit="10" x1="5.472" y1="15.293" x2="18.473" y2="15.293"/>
<line fill="none" stroke="#B5343A" stroke-width="0.5" stroke-linecap="round" stroke-linejoin="round" stroke-miterlimit="10" x1="7.097" y1="6.931" x2="16.85" y2="6.931"/>
<g>
	<path fill="#FFFFFF" d="M12.415,10.059c0.019-0.117-0.06-0.227-0.176-0.247c-0.117-0.019-0.228,0.06-0.248,0.177
		c-0.004,0.019-0.276,1.647-1.385,2.422c-0.441,0.296-0.972,0.429-1.501,0.374c0.039,0.149,0.09,0.297,0.153,0.438
		c0.569,0.019,1.129-0.146,1.597-0.471C12.108,11.885,12.407,10.121,12.415,10.059z"/>
	<path fill="#FFFFFF" d="M13.265,10.183c0.091-0.569-0.285-1.109-0.85-1.222l-0.047-0.01c-0.281-0.04-0.567,0.034-0.794,0.204
		c-0.231,0.165-0.386,0.417-0.429,0.697c0,0-0.24,1.307-1.027,1.851c-0.331,0.212-0.731,0.286-1.116,0.206
		c-0.005,0.146,0,0.291,0.017,0.437c0.469,0.076,0.948-0.027,1.343-0.29c0.945-0.653,1.204-2.121,1.207-2.135
		c0.025-0.169,0.118-0.32,0.257-0.419c0.139-0.1,0.312-0.141,0.481-0.112l0.019,0.003c0.34,0.066,0.567,0.391,0.513,0.734
		c-0.018,0.08-0.339,2.017-1.746,2.989c-0.464,0.321-1.008,0.506-1.571,0.534c0.101,0.137,0.214,0.266,0.337,0.383
		c0.53-0.074,1.037-0.271,1.477-0.577C12.896,12.383,13.25,10.27,13.265,10.183z"/>
	<path fill="#FFFFFF" d="M14.608,12.169c-0.21-0.033-0.397-0.151-0.52-0.326c-0.136-0.265-0.17-0.569-0.096-0.857
		c0.028-0.14,0.046-0.307,0.086-0.5l0.006-0.031c0.017-0.08,0.027-0.128,0.028-0.138c0.164-1.021-0.507-1.99-1.521-2.196
		l-0.078-0.016c-0.505-0.082-1.023,0.041-1.438,0.341c-0.408,0.307-0.685,0.757-0.775,1.259c-0.039,0.189-0.072,0.35-0.119,0.484
		c-0.045,0.297-0.198,0.568-0.429,0.758c-0.181,0.114-0.4,0.147-0.606,0.095c-0.02,0.096-0.039,0.185-0.054,0.26l0,0
		c-0.003,0.011-0.005,0.022-0.007,0.035c-0.009,0.044-0.019,0.088-0.028,0.132c0.28,0.063,0.572,0.015,0.816-0.133
		c0.522-0.36,0.694-0.831,0.846-1.563c0.07-0.392,0.286-0.741,0.604-0.979c0.323-0.231,0.725-0.324,1.117-0.257l0.056,0.012
		c0.667,0.134,1.161,0.701,1.203,1.38c-0.006,0.028,0.003,0.057,0.003,0.085l0,0c-0.005,0.124-0.018,0.246-0.042,0.366
		c-0.151,0.729-0.207,1.228,0.123,1.764c0.172,0.239,0.432,0.401,0.723,0.451c0.011-0.051,0.024-0.12,0.041-0.201l0,0L14.608,12.169
		z"/>
	<path fill="#FFFFFF" d="M9.526,10.61c0.137-0.129,0.226-0.3,0.253-0.486C9.83,9.879,9.872,9.674,9.88,9.639
		c0.208-1.289,1.42-2.164,2.708-1.957c0.001,0,0.001,0,0.002,0l0.091,0.019c1.239,0.251,2.06,1.436,1.859,2.684
		c-0.007,0.035-0.063,0.303-0.163,0.792c-0.03,0.15-0.011,0.306,0.055,0.444c0.062,0.085,0.156,0.14,0.261,0.151
		c0.117-0.565,0.267-1.292,0.272-1.319c0.236-1.477-0.735-2.877-2.202-3.173l-0.105-0.022c-1.52-0.25-2.955,0.779-3.205,2.299
		C9.452,9.562,9.451,9.565,9.45,9.57c-0.015,0.07-0.121,0.586-0.222,1.076C9.329,10.676,9.436,10.663,9.526,10.61z"/>
	<path fill="#FFFFFF" d="M12.678,12.701c-0.09,0.125-0.183,0.249-0.286,0.372c0.296,0.467,0.733,0.829,1.247,1.033
		c0.114-0.104,0.219-0.217,0.313-0.337c-0.497-0.162-0.924-0.491-1.208-0.931C12.723,12.8,12.702,12.746,12.678,12.701z"/>
	<path fill="#FFFFFF" d="M13.233,11.708c-0.082,0.182-0.177,0.372-0.284,0.563c0.047,0.119,0.105,0.233,0.173,0.341
		c0.254,0.391,0.645,0.672,1.096,0.79c0.072-0.126,0.135-0.258,0.186-0.393c-0.375-0.083-0.703-0.307-0.918-0.624
		C13.358,12.177,13.273,11.948,13.233,11.708z"/>
	<path fill="#FFFFFF" d="M11.765,13.671c0.27,0.387,0.618,0.713,1.02,0.958c0.162-0.062,0.319-0.138,0.468-0.227
		c-0.467-0.229-0.867-0.574-1.161-1.002C11.99,13.489,11.881,13.58,11.765,13.671z"/>
	<path fill="#FFFFFF" d="M11.406,13.911l-0.073,0.046c-0.318,0.188-0.66,0.33-1.016,0.429c0.172,0.109,0.356,0.197,0.549,0.264
		c0.147-0.058,0.292-0.123,0.433-0.195c0.099,0.118,0.204,0.229,0.315,0.336c0.208,0.013,0.416,0.004,0.621-0.029
		c-0.292-0.224-0.551-0.488-0.77-0.785L11.406,13.911z"/>
</g>
</svg>
