<?xml version="1.0" encoding="utf-8"?>
<!-- Generator: Adobe Illustrator 16.0.0, SVG Export Plug-In . SVG Version: 6.00 Build 0)  -->
<!DOCTYPE svg PUBLIC "-//W3C//DTD SVG 1.1//EN" "http://www.w3.org/Graphics/SVG/1.1/DTD/svg11.dtd">
<svg version="1.1" id="Capa_1" xmlns="http://www.w3.org/2000/svg" xmlns:xlink="http://www.w3.org/1999/xlink" x="0px" y="0px"
	 width="24px" height="24px" viewBox="0 0 24 24" enable-background="new 0 0 24 24" xml:space="preserve">
<circle fill="#FFFFFF" stroke="#FFFFFF" stroke-miterlimit="10" cx="12.001" cy="10.25" r="9"/>
<g id="Capa_1_1_" display="none">
	<circle display="inline" fill="#9A7D22" cx="12" cy="10.4" r="10"/>
</g>
<g id="Capa_3">
	<path fill="#B5343A" d="M11.997,0.001L11.997,0.001c-5.66-0.085-10.315,4.434-10.4,10.093c0,0.044,0,0.089,0,0.133
		c0,3.126,1.311,5.527,3.563,7.753c2.972,2.929,5.813,5.599,5.813,5.599c0.311,0.3,0.736,0.45,1.167,0.412v-0.412l0,0V24
		c0.367-0.079,0.715-0.232,1.021-0.455c0,0,2.741-2.74,5.696-5.652c2.254-2.221,3.547-4.533,3.547-7.677
		C22.376,4.547,17.759-0.027,12.09,0C12.06,0,12.028,0,11.997,0.001z M11.997,19c-4.946,0.003-8.957-4.004-8.959-8.949
		c-0.003-4.945,4.003-8.956,8.948-8.959c4.944-0.002,8.956,4.003,8.958,8.949c0,0.003,0,0.007,0,0.011
		C20.939,14.995,16.936,19,11.991,19H11.997z"/>
</g>
<line fill="none" stroke="#B5343A" stroke-width="0.25" stroke-linecap="round" stroke-linejoin="round" stroke-miterlimit="10" x1="12.024" y1="3.053" x2="12.024" y2="6.784"/>
<path fill="#B5343A" d="M12.348,3.034c0,0,1.044,0.615,2.232-0.368c0,0,0.9,0.025,0.98,0.278c0.082,0.254,0,1.973,0,1.973
	s-0.722-0.573-1.59,0c0,0-0.746,0.531-1.625,0"/>
<rect x="6.772" y="6.883" fill="#B5343A" stroke="#B5343A" stroke-width="0.25" stroke-linecap="round" stroke-linejoin="round" stroke-miterlimit="10" width="10.4" height="8.232"/>
<line fill="none" stroke="#B5343A" stroke-width="0.5" stroke-linecap="round" stroke-linejoin="round" stroke-miterlimit="10" x1="5.472" y1="15.293" x2="18.473" y2="15.293"/>
<line fill="none" stroke="#B5343A" stroke-width="0.5" stroke-linecap="round" stroke-linejoin="round" stroke-miterlimit="10" x1="7.097" y1="6.931" x2="16.85" y2="6.931"/>
<path fill="#FFFFFF" d="M11.372,8.689c0.424,0,0.573,0.081,0.62,0.554C12,9.334,12.077,9.404,12.169,9.403h0.02
	c0.098-0.008,0.169-0.094,0.161-0.192c-0.001-0.001-0.001-0.003-0.001-0.004c-0.063-0.631-0.337-0.875-0.977-0.875
	c-0.099,0-0.179,0.08-0.179,0.179S11.273,8.689,11.372,8.689z"/>
<path fill="#FFFFFF" d="M12.173,13.592c-0.424,0-0.573-0.08-0.62-0.553c-0.01-0.1-0.098-0.17-0.197-0.162
	c-0.098,0.01-0.169,0.096-0.161,0.193c0,0.002,0,0.002,0,0.004c0.064,0.629,0.338,0.875,0.975,0.875c0.099,0,0.179-0.08,0.179-0.178
	c0-0.1-0.08-0.18-0.179-0.18H12.173z"/>
<path fill="#FFFFFF" d="M16.311,11.422h-0.074c-0.35,0-0.643,0.262-0.682,0.609H13.32v-0.152c0.355-0.03,0.629-0.327,0.629-0.684
	V11.12c-0.004-0.354-0.275-0.648-0.629-0.679V8.919c0-0.732-0.594-1.326-1.325-1.326l0,0H8.448C8.433,7.224,8.13,6.932,7.761,6.931
	H7.689C7.309,6.931,7,7.24,7,7.621v2.597c0,0.381,0.309,0.689,0.689,0.689h0.075c0.369-0.001,0.672-0.293,0.687-0.662h2.231v0.191
	h-0.014c-0.381,0-0.689,0.309-0.689,0.689V11.2c0,0.381,0.309,0.69,0.689,0.69l0,0v1.473c0,0.732,0.594,1.326,1.327,1.326l0,0h3.54
	v0.01c0,0.381,0.309,0.689,0.689,0.689l0,0h0.074c0.381,0.006,0.695-0.297,0.701-0.678c0-0.004,0-0.008,0-0.012v-2.588
	C17,11.73,16.691,11.422,16.311,11.422L16.311,11.422z M8.061,10.217c0,0.168-0.137,0.305-0.305,0.305l0,0H7.689
	c-0.168,0-0.305-0.136-0.305-0.305l0,0V7.621c0-0.168,0.136-0.305,0.305-0.305l0,0h0.075c0.168,0,0.305,0.136,0.305,0.305l0,0
	L8.061,10.217z M8.445,9.799V8.039h3.561c0.484,0.001,0.876,0.394,0.877,0.877v1.517h-1.758V9.796L8.445,9.799z M10.355,11.197
	v-0.075c0-0.168,0.136-0.305,0.305-0.305l0,0h2.597c0.169,0,0.305,0.137,0.305,0.305l0,0v0.075c0,0.168-0.136,0.305-0.305,0.305l0,0
	h-2.591c-0.168,0-0.305-0.136-0.305-0.305H10.355z M11.992,14.242c-0.487,0.004-0.883-0.389-0.886-0.875c0-0.002,0-0.004,0-0.008
	v-1.472h1.757v0.598h2.672v1.757H11.992z M16.615,14.699c0,0.168-0.137,0.305-0.305,0.305h-0.074c-0.168,0-0.305-0.137-0.305-0.305
	v-2.588c0-0.168,0.137-0.304,0.305-0.304h0.074c0.168,0,0.305,0.136,0.305,0.304V14.699z"/>
</svg>
