<?xml version="1.0" encoding="utf-8"?>
<!-- Generator: Adobe Illustrator 16.0.0, SVG Export Plug-In . SVG Version: 6.00 Build 0)  -->
<!DOCTYPE svg PUBLIC "-//W3C//DTD SVG 1.1//EN" "http://www.w3.org/Graphics/SVG/1.1/DTD/svg11.dtd">
<svg version="1.1" id="Capa_1" xmlns="http://www.w3.org/2000/svg" xmlns:xlink="http://www.w3.org/1999/xlink" x="0px" y="0px"
	 width="24px" height="24px" viewBox="0 0 24 24" enable-background="new 0 0 24 24" xml:space="preserve">
<circle fill="#FFFFFF" stroke="#FFFFFF" stroke-miterlimit="10" cx="12.001" cy="10.25" r="9"/>
<g id="Capa_1_1_" display="none">
	<circle display="inline" fill="#9A7D22" cx="12" cy="10.4" r="10"/>
</g>
<g id="Capa_3">
	<path fill="#B5343A" d="M11.997,0.001L11.997,0.001c-5.66-0.085-10.315,4.434-10.4,10.093c0,0.044,0,0.089,0,0.133
		c0,3.126,1.311,5.527,3.563,7.753c2.972,2.929,5.813,5.599,5.813,5.599c0.311,0.3,0.736,0.45,1.167,0.412v-0.412l0,0V24
		c0.367-0.079,0.715-0.232,1.021-0.455c0,0,2.741-2.74,5.696-5.652c2.254-2.221,3.547-4.533,3.547-7.677
		C22.376,4.547,17.759-0.027,12.09,0C12.06,0,12.028,0,11.997,0.001z M11.997,19c-4.946,0.003-8.957-4.004-8.959-8.949
		c-0.003-4.945,4.003-8.956,8.948-8.959c4.944-0.002,8.956,4.003,8.958,8.949c0,0.003,0,0.007,0,0.011
		C20.939,14.995,16.936,19,11.991,19H11.997z"/>
</g>
<line fill="none" stroke="#B5343A" stroke-width="0.25" stroke-linecap="round" stroke-linejoin="round" stroke-miterlimit="10" x1="12.024" y1="3.053" x2="12.024" y2="6.784"/>
<path fill="#B5343A" d="M12.348,3.034c0,0,1.044,0.615,2.232-0.368c0,0,0.9,0.025,0.98,0.278c0.082,0.254,0,1.973,0,1.973
	s-0.723-0.573-1.59,0c0,0-0.746,0.531-1.625,0"/>
<rect x="6.772" y="6.883" fill="#B5343A" stroke="#B5343A" stroke-width="0.25" stroke-linecap="round" stroke-linejoin="round" stroke-miterlimit="10" width="10.4" height="8.232"/>
<line fill="none" stroke="#B5343A" stroke-width="0.5" stroke-linecap="round" stroke-linejoin="round" stroke-miterlimit="10" x1="5.472" y1="15.293" x2="18.473" y2="15.293"/>
<line fill="none" stroke="#B5343A" stroke-width="0.5" stroke-linecap="round" stroke-linejoin="round" stroke-miterlimit="10" x1="7.097" y1="6.931" x2="16.85" y2="6.931"/>
<path fill="#FFFFFF" d="M16.381,11.099C16.318,11.037,16.233,11,16.146,11h-0.177c-0.182-0.408-0.469-1.037-0.864-1.911
	c0.21-0.185,0.392-0.398,0.542-0.635c0.082-0.128,0.111-0.282,0.08-0.432c-0.058-0.267-0.293-0.457-0.565-0.457
	c-0.037-0.004-0.073-0.004-0.11,0h-0.02c-0.152,0.036-0.283,0.135-0.36,0.271c-0.023,0.034-0.054,0.078-0.086,0.119l-0.046,0.047
	c-0.076-0.023-0.156-0.036-0.237-0.036c-0.154-0.001-0.306,0.047-0.432,0.136c-0.239-0.102-0.54-0.239-0.863-0.397
	c-0.057-0.244-0.197-0.46-0.397-0.611c-0.181-0.153-0.41-0.237-0.647-0.237c-0.212,0-0.418,0.068-0.589,0.194
	c-0.059,0.04-0.114,0.084-0.164,0.134c-0.144,0.142-0.243,0.323-0.285,0.52c-0.32,0.158-0.62,0.296-0.864,0.397
	C9.934,8.014,9.783,7.966,9.628,7.967c-0.081,0-0.161,0.013-0.237,0.036L9.35,7.962C9.315,7.917,9.283,7.875,9.259,7.837
	C9.183,7.708,9.059,7.616,8.914,7.579H8.901c-0.037-0.003-0.073-0.003-0.11,0c-0.111,0-0.22,0.031-0.313,0.091
	C8.211,7.842,8.134,8.198,8.305,8.465c0.15,0.236,0.333,0.45,0.542,0.635c-0.408,0.881-0.695,1.512-0.863,1.911H7.8
	c-0.181,0-0.328,0.146-0.328,0.327c0,0.003,0,0.006,0,0.009v0.063c0.025,1.198,0.99,2.161,2.187,2.184h0.039
	c0.668-0.012,1.293-0.33,1.697-0.863v0.607c-0.021,0.01-0.042,0.021-0.063,0.035c-0.256,0.141-0.464,0.355-0.598,0.615h-0.246
	c-0.317-0.008-0.579,0.244-0.586,0.561c-0.006,0.289,0.204,0.537,0.489,0.58c0.025,0.008,0.051,0.012,0.078,0.012h3.022
	c0.017,0.002,0.034,0.002,0.052,0c0.314-0.039,0.539-0.324,0.502-0.639c-0.036-0.295-0.29-0.514-0.586-0.506h-0.24
	c-0.136-0.26-0.344-0.475-0.6-0.617l-0.061-0.033v-0.613c0.403,0.533,1.027,0.85,1.694,0.865h0.046
	c1.196-0.031,2.155-1.002,2.174-2.199v-0.063C16.474,11.249,16.441,11.164,16.381,11.099z M13.948,8.485
	c0.133-0.197,0.401-0.249,0.599-0.115c0.018,0.012,0.033,0.024,0.049,0.038l0.064-0.059l0.177-0.177
	c0.039-0.052,0.078-0.108,0.112-0.158c0.034-0.056,0.091-0.095,0.155-0.107h0.05c0.048-0.001,0.096,0.013,0.136,0.039
	c0.056,0.035,0.094,0.091,0.106,0.155c0.014,0.063,0.002,0.13-0.032,0.186c-0.175,0.279-0.405,0.519-0.679,0.704
	c0.433,0.915,0.728,1.577,0.925,2.021H15.06c-0.091-0.203-0.194-0.433-0.3-0.667c-0.139-0.31-0.285-0.635-0.432-0.946l-0.784,1.613
	h-0.542l0.965-1.991c-0.416-0.146-0.823-0.315-1.22-0.509c0.11-0.133,0.185-0.291,0.216-0.46C13.35,8.228,13.695,8.381,13.948,8.485
	z M14.699,11.006h-0.784l0.406-0.838l0.138,0.305c0.082,0.171,0.164,0.36,0.24,0.527V11.006z M11.394,8.811V11h-0.088l-0.876-1.805
	c0.337-0.132,0.695-0.299,0.928-0.408L11.394,8.811z M11.291,7.861c0-0.215,0.103-0.417,0.276-0.544
	c0.118-0.081,0.256-0.125,0.399-0.127h0.015c0.176,0.003,0.345,0.069,0.477,0.186c0.264,0.269,0.261,0.7-0.007,0.965
	s-0.7,0.262-0.965-0.007c-0.126-0.128-0.197-0.301-0.196-0.48V7.861z M12.586,8.788c0.232,0.109,0.591,0.276,0.928,0.408L12.638,11
	h-0.089V8.811L12.586,8.788z M9.259,8.979C8.987,8.792,8.757,8.55,8.583,8.269C8.51,8.155,8.543,8.002,8.658,7.929
	c0,0,0.001-0.001,0.001-0.001c0.04-0.025,0.086-0.039,0.134-0.039h0.05c0.064,0.013,0.121,0.052,0.155,0.108
	c0.035,0.05,0.073,0.105,0.119,0.164l0.17,0.17L9.352,8.39c0.177-0.16,0.45-0.146,0.61,0.029C9.976,8.435,9.988,8.451,10,8.468
	c0.253-0.096,0.598-0.251,0.982-0.433c0.031,0.17,0.105,0.328,0.216,0.46c-0.396,0.195-0.802,0.367-1.217,0.514L10.945,11h-0.548
	L9.613,9.387c-0.143,0.312-0.289,0.637-0.432,0.945c-0.106,0.238-0.216,0.465-0.3,0.668H8.337c0.196-0.443,0.501-1.105,0.924-2.021
	H9.259z M10.028,11H9.246c0.076-0.167,0.158-0.348,0.24-0.533l0.138-0.305L10.028,11z M9.691,13.264H9.659
	C8.64,13.232,7.825,12.41,7.802,11.39v-0.063h3.71v0.061C11.522,12.408,10.71,13.244,9.691,13.264z M12.987,14.313h0.471
	c0.136-0.006,0.251,0.1,0.257,0.236s-0.1,0.25-0.235,0.256h-3.022c-0.136-0.006-0.242-0.119-0.235-0.256
	c0.006-0.137,0.121-0.242,0.257-0.236h0.471c0.088-0.277,0.283-0.51,0.542-0.646c0.073-0.041,0.151-0.074,0.231-0.098V8.839
	c0.163,0.046,0.334,0.046,0.497,0v4.723c0.079,0.023,0.155,0.057,0.227,0.098C12.705,13.797,12.899,14.033,12.987,14.313z
	 M16.144,11.39c-0.022,1.016-0.832,1.836-1.846,1.874h-0.035c-1.018-0.021-1.829-0.857-1.819-1.875v-0.061h3.7V11.39z"/>
</svg>
