<?xml version="1.0" encoding="utf-8"?>
<!-- Generator: Adobe Illustrator 16.0.0, SVG Export Plug-In . SVG Version: 6.00 Build 0)  -->
<!DOCTYPE svg PUBLIC "-//W3C//DTD SVG 1.1//EN" "http://www.w3.org/Graphics/SVG/1.1/DTD/svg11.dtd">
<svg version="1.1" id="Capa_1" xmlns="http://www.w3.org/2000/svg" xmlns:xlink="http://www.w3.org/1999/xlink" x="0px" y="0px"
	 width="24px" height="24px" viewBox="0 0 24 24" enable-background="new 0 0 24 24" xml:space="preserve">
<circle fill="#FFFFFF" stroke="#FFFFFF" stroke-miterlimit="10" cx="12.001" cy="10.25" r="9"/>
<g id="Capa_1_1_" display="none">
	<circle display="inline" fill="#9A7D22" cx="12" cy="10.4" r="10"/>
</g>
<g id="Capa_3">
	<path fill="#B5343A" d="M11.997,0.001L11.997,0.001c-5.66-0.085-10.315,4.434-10.4,10.093c0,0.044,0,0.089,0,0.133
		c0,3.126,1.311,5.527,3.563,7.753c2.972,2.929,5.813,5.599,5.813,5.599c0.311,0.3,0.736,0.45,1.167,0.412v-0.412l0,0V24
		c0.367-0.079,0.715-0.232,1.021-0.455c0,0,2.741-2.74,5.696-5.652c2.254-2.221,3.547-4.533,3.547-7.677
		C22.376,4.547,17.759-0.027,12.09,0C12.06,0,12.028,0,11.997,0.001z M11.997,19c-4.946,0.003-8.957-4.004-8.959-8.949
		c-0.003-4.945,4.003-8.956,8.948-8.959c4.944-0.002,8.956,4.003,8.958,8.949c0,0.003,0,0.007,0,0.011
		C20.939,14.995,16.936,19,11.991,19H11.997z"/>
</g>
<g>
	<path fill="#B5343A" d="M16.258,9.848l0.237-0.766c0.023-0.077,0.003-0.16-0.056-0.216c-0.059-0.053-0.143-0.071-0.216-0.045
		l-0.146,0.05c0.217-0.839,0.309-1.795,0.309-2.469c0-0.96-0.318-1.845-0.848-2.563c-0.01-0.029-0.028-0.053-0.053-0.074
		c0-0.002-0.002-0.002-0.005-0.005c-0.792-1.029-2.036-1.698-3.434-1.698c-2.392,0-4.337,1.948-4.337,4.339c0,0,0,0,0,0.003
		c0,0.013,0.003,0.11,0.013,0.255C7.734,6.782,7.75,6.937,7.779,7.108c0,0.013,0.003,0.029,0.005,0.045
		c0.011,0.058,0.021,0.115,0.034,0.176C7.866,7.563,7.937,7.809,8.04,8.016c0.002,0.003,0.005,0.008,0.005,0.013
		C8.1,8.158,8.16,8.287,8.226,8.414l0.105,1.948c-0.908,0.023-1.832,0.276-1.832,0.8c0,0.124,0.053,0.229,0.139,0.321
		c0.003,0.011,0.003,0.021,0.008,0.029c0.044,0.103,0.071,0.29,0.1,0.471c0.044,0.3,0.092,0.611,0.234,0.805
		c0.166,0.229,0.408,0.211,0.571,0.2C7.634,12.981,7.71,12.977,7.748,13c0.05,0.038,0.129,0.175,0.189,0.274
		c0.142,0.239,0.29,0.486,0.545,0.486c0.252,0,0.4-0.247,0.542-0.486c0.06-0.1,0.142-0.236,0.192-0.274
		c0.034-0.023,0.11-0.019,0.195-0.013c0.16,0.011,0.403,0.029,0.568-0.2c0.142-0.194,0.189-0.505,0.234-0.805
		c0.021-0.126,0.039-0.255,0.065-0.355c0.611,0.113,1.2,0.142,1.613,0.142c0.334,0,0.556-0.018,0.584-0.021
		c0.069-0.005,0.129-0.042,0.164-0.1s0.039-0.129,0.013-0.19l-0.184-0.441c0.161,0.002,0.321,0.005,0.477,0.013
		c0.199,0.008,0.396,0.016,0.592,0.016c0.308,0,0.603-0.024,0.884-0.098l-0.182,0.495c-0.026,0.071-0.011,0.152,0.04,0.21
		c0.041,0.047,0.1,0.071,0.158,0.071c0.016,0,0.031,0,0.047-0.005l0.713-0.163c0.008-0.003,0.016-0.003,0.023-0.005l0.382-0.09
		c0.073-0.016,0.132-0.071,0.155-0.143l0.098-0.321l0.256-0.705l0.01-0.029c0.542,0.021,0.863,0.153,0.944,0.229
		c-0.039,0.037-0.149,0.103-0.376,0.158c-0.074,0.018-0.155,0.034-0.239,0.045c-0.029,0.005-0.056,0.013-0.079,0.029
		c-0.07,0.042-0.113,0.124-0.1,0.21c0.016,0.103,0.105,0.179,0.207,0.179c0.012,0,0.021,0,0.032-0.002
		c0.097-0.013,0.192-0.031,0.276-0.053c0.068-0.016,0.129-0.034,0.187-0.052c-0.003,0.044-0.008,0.092-0.011,0.142
		c-0.01,0.2-0.031,0.539-0.081,0.618c-0.017,0.006-0.065,0.003-0.098,0c-0.105-0.01-0.259-0.021-0.395,0.087
		c-0.101,0.079-0.171,0.211-0.245,0.351c-0.037,0.065-0.092,0.176-0.129,0.215c-0.094,0.019-0.168,0.105-0.168,0.205
		c0,0.116,0.094,0.21,0.21,0.21c0.229,0,0.351-0.231,0.458-0.434c0.039-0.071,0.104-0.19,0.132-0.216
		c0.016-0.005,0.068-0.002,0.103,0c0.118,0.011,0.34,0.029,0.481-0.189c0.105-0.161,0.13-0.429,0.153-0.821
		c0.01-0.174,0.023-0.385,0.053-0.474c0.047-0.071,0.063-0.145,0.063-0.208C17.5,10.098,16.916,9.895,16.258,9.848z M12.047,2.484
		c1.216,0,2.3,0.556,3.021,1.426c-0.393,0.397-0.559,0.372-0.576,0.366c-0.061-0.016-0.098-0.126-0.105-0.156
		c-0.016-0.236-0.092-0.397-0.227-0.487c-0.215-0.142-0.486-0.05-0.773,0.048c-0.119,0.039-0.239,0.079-0.36,0.108
		c-0.295,0.071-0.371-0.026-0.571-0.285c-0.071-0.092-0.152-0.197-0.258-0.303c-0.692-0.71-1.761-0.06-1.813-0.026
		c-0.018,0.013-0.431,0.3-0.497,0.745C9.85,4.169,9.923,4.408,10.103,4.634c0.174,0.216,0.353,0.348,0.524,0.424
		c-0.15-0.008-0.348-0.045-0.598-0.14c-0.182-0.066-0.518-0.189-0.65,0.042c-0.066,0.116-0.161,0.284,0.692,1.024
		C9.939,6.014,9.811,6.066,9.713,6.158C9.629,6.237,9.531,6.382,9.556,6.616C9.597,7,9.773,7.395,9.905,7.647
		c-0.058,0-0.119-0.01-0.179-0.036C9.608,7.556,9.516,7.44,9.455,7.269C9.432,7.2,9.408,7.129,9.387,7.058
		c-0.131-0.397-0.279-0.85-0.647-1.037c-0.168-0.084-0.363-0.1-0.584-0.053C8.374,4.014,10.034,2.484,12.047,2.484z M9.797,11.918
		c-0.034,0.227-0.076,0.508-0.158,0.622c-0.024,0.031-0.05,0.039-0.2,0.029c-0.137-0.011-0.309-0.023-0.466,0.086
		c-0.124,0.087-0.216,0.24-0.311,0.403c-0.05,0.084-0.129,0.216-0.182,0.269C8.429,13.274,8.35,13.143,8.3,13.059
		c-0.097-0.163-0.187-0.316-0.31-0.403c-0.158-0.109-0.329-0.097-0.469-0.086c-0.147,0.01-0.176,0.002-0.2-0.029
		c-0.082-0.113-0.124-0.395-0.158-0.622c-0.008-0.049-0.016-0.097-0.023-0.144c0.376,0.131,0.868,0.192,1.342,0.192
		s0.963-0.061,1.339-0.192C9.813,11.822,9.805,11.869,9.797,11.918z M8.481,11.545c-0.984,0-1.54-0.269-1.561-0.382
		c0.021-0.116,0.579-0.384,1.561-0.384c0.979,0,1.535,0.269,1.558,0.382C10.016,11.277,9.46,11.545,8.481,11.545z M10.453,11.229
		c0.002-0.024,0.008-0.045,0.008-0.068c0-0.5-0.839-0.753-1.705-0.794L8.663,8.7c0.582,0.269,1.826,0.803,2.784,0.956l0.703,1.687
		C11.79,11.353,11.137,11.345,10.453,11.229z M12.961,10.608c-0.217-0.008-0.439-0.019-0.669-0.019L11.79,9.385
		c-0.029-0.071-0.092-0.118-0.166-0.129c-1.092-0.14-2.731-0.911-3.042-1.058C8.526,8.087,8.474,7.977,8.429,7.864
		C8.426,7.855,8.426,7.845,8.421,7.837C8.413,7.819,8.405,7.798,8.395,7.779c-0.063-0.171-0.121-0.342-0.16-0.521
		C8.179,6.998,8.153,6.745,8.142,6.58C8.14,6.542,8.137,6.506,8.134,6.469L8.2,6.387c0.145-0.04,0.26-0.034,0.35,0.01
		C8.761,6.506,8.876,6.853,8.987,7.19C9.01,7.263,9.034,7.337,9.058,7.408c0.103,0.287,0.271,0.484,0.5,0.587
		c0.36,0.161,0.718,0.019,0.76,0.003c0.055-0.027,0.1-0.074,0.118-0.134c0.019-0.058,0.011-0.124-0.023-0.176
		c-0.005-0.005-0.382-0.595-0.437-1.116c-0.008-0.073,0.016-0.097,0.026-0.108c0.103-0.097,0.424-0.097,0.608-0.066
		c0.097,0.016,0.189-0.034,0.229-0.121c0.037-0.089,0.013-0.192-0.061-0.253c-0.266-0.21-0.553-0.463-0.755-0.661
		c0.476,0.153,0.863,0.156,1.149,0.008c0.287-0.147,0.358-0.392,0.366-0.418c0.021-0.079-0.005-0.161-0.066-0.213
		c-0.058-0.053-0.145-0.065-0.218-0.037c-0.042,0.019-0.432,0.158-0.824-0.332c-0.105-0.131-0.147-0.258-0.129-0.384
		c0.037-0.263,0.311-0.458,0.311-0.458c0.013-0.008,0.829-0.498,1.284-0.031c0.087,0.089,0.158,0.179,0.227,0.268
		c0.215,0.276,0.439,0.566,0.997,0.435c0.145-0.035,0.279-0.08,0.4-0.121c0.134-0.045,0.357-0.119,0.404-0.092
		c0,0,0.032,0.029,0.045,0.184c0.006,0.042,0.074,0.413,0.4,0.508c0.266,0.079,0.576-0.061,0.947-0.427
		c0.408,0.619,0.647,1.355,0.647,2.15c0,1.143-0.282,3.048-0.899,3.703C14.526,10.674,13.837,10.645,12.961,10.608z M15.795,9.922
		l-0.34,0.944L15.39,11.08l-0.25,0.058c-0.005,0-0.013,0.003-0.019,0.005l-0.35,0.079l0.179-0.49
		c0.147-0.087,0.286-0.198,0.421-0.337c0.229-0.245,0.413-0.605,0.558-1.023l0.04-0.014L15.795,9.922z"/>
	
		<polyline fill="none" stroke="#B5343A" stroke-width="0.5" stroke-linecap="round" stroke-linejoin="round" stroke-miterlimit="10" points="
		6.981,12.787 6.5,13.761 10.163,15.908 15.607,15.908 17.231,11.996 	"/>
	<polygon fill="none" stroke="#B5343A" stroke-width="0.5" stroke-linejoin="round" stroke-miterlimit="10" points="10.163,16.402 
		15.689,16.402 16.102,17.393 10.163,17.393 	"/>
</g>
</svg>
