<?xml version="1.0" encoding="utf-8"?>
<!-- Generator: Adobe Illustrator 16.0.0, SVG Export Plug-In . SVG Version: 6.00 Build 0)  -->
<!DOCTYPE svg PUBLIC "-//W3C//DTD SVG 1.1//EN" "http://www.w3.org/Graphics/SVG/1.1/DTD/svg11.dtd">
<svg version="1.1" id="Capa_1" xmlns="http://www.w3.org/2000/svg" xmlns:xlink="http://www.w3.org/1999/xlink" x="0px" y="0px"
	 width="24px" height="24px" viewBox="0 0 24 24" enable-background="new 0 0 24 24" xml:space="preserve">
<circle fill="#FFFFFF" stroke="#FFFFFF" stroke-miterlimit="10" cx="12.001" cy="10.25" r="9"/>
<g id="Capa_1_1_" display="none">
	<circle display="inline" fill="#9A7D22" cx="12" cy="10.4" r="10"/>
</g>
<g id="Capa_3">
	<path fill="#F39F7E" d="M11.997,0.001L11.997,0.001c-5.66-0.085-10.315,4.434-10.4,10.093c0,0.044,0,0.089,0,0.133
		c0,3.126,1.311,5.527,3.563,7.753c2.972,2.929,5.813,5.599,5.813,5.599c0.311,0.3,0.736,0.45,1.167,0.412v-0.412l0,0V24
		c0.367-0.079,0.715-0.232,1.021-0.455c0,0,2.741-2.74,5.696-5.652c2.254-2.221,3.547-4.533,3.547-7.677
		C22.376,4.547,17.759-0.027,12.09,0C12.06,0,12.028,0,11.997,0.001z M11.997,19c-4.946,0.003-8.957-4.004-8.959-8.949
		c-0.003-4.945,4.003-8.956,8.948-8.959c4.944-0.002,8.956,4.003,8.958,8.949c0,0.003,0,0.007,0,0.011
		C20.939,14.995,16.936,19,11.991,19H11.997z"/>
</g>
<g>
	<path fill="#F39F7E" d="M18.018,5.323H5.982C5.438,5.323,5,5.762,5,6.305v7.892c0,0.54,0.438,0.979,0.982,0.979l0,0h12.036
		c0.543,0,0.982-0.439,0.982-0.979l0,0V6.305C19,5.762,18.561,5.323,18.018,5.323z M18.438,14.204c0,0.231-0.188,0.421-0.421,0.421
		l0,0H5.982c-0.232,0-0.42-0.189-0.42-0.421l0,0V6.313c0-0.231,0.188-0.419,0.42-0.419h12.036c0.232,0,0.421,0.188,0.421,0.419l0,0
		V14.204z"/>
	<path fill="#F39F7E" d="M8.14,9.22C8.27,9.213,8.398,9.253,8.5,9.334c0.088,0.082,0.136,0.197,0.129,0.315h0.609
		c-0.001-0.17-0.054-0.336-0.151-0.477C8.991,9.034,8.857,8.924,8.702,8.857C8.526,8.776,8.334,8.734,8.14,8.734
		C7.946,8.732,7.752,8.769,7.571,8.842c-0.153,0.06-0.288,0.162-0.388,0.294c-0.084,0.122-0.13,0.267-0.128,0.417
		c0.008,0.323,0.207,0.611,0.504,0.735c0.162,0.082,0.329,0.149,0.502,0.202c0.154,0.043,0.303,0.109,0.438,0.196
		c0.082,0.063,0.128,0.161,0.123,0.264c0.003,0.098-0.043,0.19-0.123,0.246c-0.102,0.065-0.221,0.096-0.341,0.088
		c-0.391,0-0.587-0.163-0.587-0.488H6.963c-0.003,0.179,0.048,0.355,0.148,0.505c0.108,0.152,0.256,0.271,0.429,0.344
		c0.199,0.087,0.414,0.13,0.631,0.125c0.278,0.017,0.553-0.062,0.782-0.216c0.191-0.142,0.3-0.367,0.292-0.604
		c0.006-0.216-0.081-0.426-0.237-0.577c-0.219-0.186-0.478-0.32-0.757-0.388c-0.15-0.039-0.293-0.098-0.427-0.177
		C7.728,9.759,7.667,9.66,7.667,9.552c0-0.098,0.046-0.19,0.123-0.25C7.894,9.238,8.017,9.209,8.14,9.22z"/>
	<path fill="#F39F7E" d="M11.28,10.745c0,0.36-0.175,0.539-0.524,0.539c-0.14,0.011-0.28-0.037-0.384-0.131
		c-0.103-0.117-0.154-0.27-0.14-0.424V8.775H9.621v1.973c-0.01,0.286,0.105,0.561,0.315,0.754c0.23,0.191,0.525,0.291,0.825,0.274
		c0.303,0.018,0.6-0.085,0.83-0.283c0.212-0.198,0.328-0.48,0.315-0.771V8.775H11.28V10.745z"/>
	<path fill="#F39F7E" d="M14.102,10.211c0.129-0.044,0.239-0.13,0.316-0.243c0.074-0.113,0.112-0.246,0.11-0.382
		c0.015-0.236-0.091-0.464-0.277-0.606c-0.244-0.152-0.53-0.225-0.817-0.205h-1.042v2.96h1.152c0.275,0.017,0.549-0.063,0.776-0.223
		c0.182-0.157,0.281-0.393,0.271-0.633c0.006-0.158-0.044-0.313-0.141-0.438C14.365,10.327,14.242,10.246,14.102,10.211z M13,9.265
		h0.426c0.131-0.009,0.258,0.021,0.369,0.088c0.086,0.072,0.129,0.18,0.118,0.29c0,0.24-0.153,0.363-0.462,0.369H13V9.265z
		 M13.861,11.13c-0.096,0.074-0.216,0.111-0.336,0.104H13v-0.787h0.559c0.204-0.027,0.393,0.116,0.42,0.319
		c0.004,0.031,0.004,0.063,0,0.094C13.98,10.963,13.938,11.062,13.861,11.13z"/>
	<polygon fill="#F39F7E" points="15.661,10.448 16.831,10.448 16.831,9.976 15.661,9.976 15.661,9.268 17.031,9.268 17.031,8.775 
		15.051,8.775 15.051,11.736 17.036,11.736 17.036,11.248 15.661,11.248 	"/>
</g>
</svg>
