<?xml version="1.0" encoding="utf-8"?>
<!-- Generator: Adobe Illustrator 16.0.0, SVG Export Plug-In . SVG Version: 6.00 Build 0)  -->
<!DOCTYPE svg PUBLIC "-//W3C//DTD SVG 1.1//EN" "http://www.w3.org/Graphics/SVG/1.1/DTD/svg11.dtd">
<svg version="1.1" id="Capa_1" xmlns="http://www.w3.org/2000/svg" xmlns:xlink="http://www.w3.org/1999/xlink" x="0px" y="0px"
	 width="24px" height="24px" viewBox="0 0 24 24" enable-background="new 0 0 24 24" xml:space="preserve">
<circle fill="#FFFFFF" stroke="#FFFFFF" stroke-miterlimit="10" cx="12.001" cy="10.25" r="9"/>
<g id="Capa_1_1_" display="none">
	<circle display="inline" fill="#9A7D22" cx="12" cy="10.4" r="10"/>
</g>
<g id="Capa_3">
	<path fill="#F39F7E" d="M11.997,0.001L11.997,0.001c-5.66-0.085-10.315,4.434-10.4,10.093c0,0.044,0,0.089,0,0.133
		c0,3.126,1.311,5.527,3.563,7.753c2.972,2.929,5.813,5.599,5.813,5.599c0.311,0.3,0.736,0.45,1.167,0.412v-0.412l0,0V24
		c0.367-0.079,0.715-0.232,1.021-0.455c0,0,2.741-2.74,5.696-5.652c2.254-2.221,3.547-4.533,3.547-7.677
		C22.376,4.547,17.759-0.027,12.09,0C12.06,0,12.028,0,11.997,0.001z M11.997,19c-4.946,0.003-8.957-4.004-8.959-8.949
		c-0.003-4.945,4.003-8.956,8.948-8.959c4.944-0.002,8.956,4.003,8.958,8.949c0,0.003,0,0.007,0,0.011
		C20.939,14.995,16.936,19,11.991,19H11.997z"/>
</g>
<path fill="#F39F7E" d="M15.177,5.586H8.829c-0.447,0-0.808,0.362-0.808,0.808v3.668c0,0.147,0.12,0.268,0.268,0.268h4.367
	c0.146-0.001,0.267-0.12,0.267-0.268c0-0.147-0.118-0.267-0.267-0.267h-1.322V8.242c-0.002-0.292-0.24-0.529-0.532-0.529H9.667
	c-0.293,0-0.53,0.236-0.532,0.529v1.553H8.541V6.394c0-0.151,0.123-0.273,0.273-0.273h6.065l0.495-0.495
	C15.31,5.609,15.247,5.586,15.177,5.586z M9.551,8.242c0-0.062,0.05-0.113,0.112-0.113c0.001,0,0.002,0,0.003,0H10.8
	c0.063-0.001,0.114,0.048,0.116,0.11c0,0.001,0,0.001,0,0.003v1.553H9.551V8.242z"/>
<path fill="#F39F7E" d="M8.921,11.881c-0.466,0-0.843,0.377-0.843,0.844c0,0.465,0.377,0.844,0.844,0.844
	c0.46,0,0.836-0.37,0.843-0.832c0.006-0.465-0.366-0.849-0.832-0.854C8.929,11.881,8.925,11.881,8.921,11.881z M8.921,13.068
	c-0.184,0-0.333-0.149-0.333-0.332c0-0.185,0.149-0.333,0.333-0.333s0.333,0.149,0.333,0.333l0,0
	c-0.006,0.178-0.153,0.32-0.333,0.32V13.068z"/>
<path fill="#F39F7E" d="M15.084,11.881c-0.465,0-0.844,0.377-0.844,0.844c0,0.465,0.379,0.844,0.844,0.844
	c0.462,0,0.837-0.37,0.844-0.832c0.006-0.465-0.365-0.849-0.832-0.854C15.093,11.881,15.088,11.881,15.084,11.881z M15.084,13.068
	c-0.184,0-0.333-0.149-0.333-0.332c0-0.185,0.149-0.333,0.333-0.333c0.186,0,0.333,0.149,0.333,0.333l0,0
	c-0.006,0.178-0.153,0.32-0.333,0.32V13.068z"/>
<path fill="#F39F7E" d="M16.566,13.924c-0.002,0.182-0.148,0.326-0.33,0.326h-8.47c-0.18,0-0.327-0.146-0.327-0.326V5.31
	c1.478-0.478,3.024-0.705,4.578-0.674c1.177-0.021,2.351,0.109,3.494,0.381c0.019-0.292,0.084-0.422,0.284-0.475
	c-1.234-0.31-2.505-0.463-3.78-0.442c-1.614-0.028-3.22,0.213-4.753,0.716C7.052,4.89,6.908,5.086,6.904,5.31v1.583H6.637
	c-0.351,0-0.636,0.284-0.636,0.635c0,0.003,0,0.006,0,0.01v1.458c0,0.351,0.285,0.635,0.636,0.635h0.267v4.292
	c0,0.476,0.386,0.861,0.862,0.861h0.047v0.838c0,0.373,0.304,0.677,0.678,0.677h0.853c0.374,0,0.677-0.304,0.677-0.677v-0.838h3.954
	v0.838c0.002,0.375,0.307,0.677,0.682,0.677h0.857c0.375,0,0.678-0.302,0.68-0.677v-0.838h0.045c0.477,0,0.861-0.386,0.863-0.861
	V10.5h-0.535V13.924z M6.904,9.097H6.637c-0.056,0-0.102-0.045-0.102-0.101V7.538c0-0.057,0.046-0.102,0.102-0.102h0.267V9.097z
	 M9.351,15.773H8.49c-0.079,0-0.143-0.063-0.143-0.142v-0.847h1.146v0.847h0.001C9.493,15.709,9.43,15.773,9.351,15.773z
	 M15.657,15.632c-0.001,0.079-0.065,0.144-0.146,0.142h-0.857c-0.08,0.002-0.146-0.063-0.146-0.142v-0.847h1.149V15.632z"/>
<text transform="matrix(1 0 0 1 12.6172 12)" fill="#F39F7E" stroke="#FFFFFF" stroke-width="0.2" stroke-miterlimit="10" font-family="'MyriadPro-Bold'" font-size="12">D</text>
</svg>
