<?xml version="1.0" encoding="utf-8"?>
<!-- Generator: Adobe Illustrator 16.0.0, SVG Export Plug-In . SVG Version: 6.00 Build 0)  -->
<!DOCTYPE svg PUBLIC "-//W3C//DTD SVG 1.1//EN" "http://www.w3.org/Graphics/SVG/1.1/DTD/svg11.dtd">
<svg version="1.1" id="Capa_1" xmlns="http://www.w3.org/2000/svg" xmlns:xlink="http://www.w3.org/1999/xlink" x="0px" y="0px"
	 width="24px" height="24px" viewBox="0 0 24 24" enable-background="new 0 0 24 24" xml:space="preserve">
<circle fill="#FFFFFF" stroke="#FFFFFF" stroke-miterlimit="10" cx="12.001" cy="10.25" r="9"/>
<g id="Capa_1_1_" display="none">
	<circle display="inline" fill="#9A7D22" cx="12" cy="10.4" r="10"/>
</g>
<g id="Capa_3">
	<path fill="#B5343A" d="M11.997,0.001L11.997,0.001c-5.66-0.085-10.315,4.434-10.4,10.093c0,0.044,0,0.089,0,0.133
		c0,3.126,1.311,5.527,3.563,7.753c2.972,2.929,5.813,5.599,5.813,5.599c0.311,0.3,0.736,0.45,1.167,0.412v-0.412l0,0V24
		c0.367-0.079,0.715-0.232,1.021-0.455c0,0,2.741-2.74,5.696-5.652c2.254-2.221,3.547-4.533,3.547-7.677
		C22.376,4.547,17.759-0.027,12.09,0C12.06,0,12.028,0,11.997,0.001z M11.997,19c-4.946,0.003-8.957-4.004-8.959-8.949
		c-0.003-4.945,4.003-8.956,8.948-8.959c4.944-0.002,8.956,4.003,8.958,8.949c0,0.003,0,0.007,0,0.011
		C20.939,14.995,16.936,19,11.991,19H11.997z"/>
</g>
<line fill="none" stroke="#B5343A" stroke-width="0.25" stroke-linecap="round" stroke-linejoin="round" stroke-miterlimit="10" x1="12.024" y1="3.053" x2="12.024" y2="6.784"/>
<path fill="#B5343A" d="M12.348,3.034c0,0,1.044,0.615,2.232-0.368c0,0,0.9,0.025,0.98,0.278c0.082,0.254,0,1.973,0,1.973
	s-0.722-0.573-1.59,0c0,0-0.746,0.531-1.625,0"/>
<rect x="6.772" y="6.784" fill="#B5343A" stroke="#B5343A" stroke-width="0.25" stroke-linecap="round" stroke-linejoin="round" stroke-miterlimit="10" width="10.4" height="8.509"/>
<line fill="none" stroke="#B5343A" stroke-width="0.5" stroke-linecap="round" stroke-linejoin="round" stroke-miterlimit="10" x1="5.472" y1="15.293" x2="18.473" y2="15.293"/>
<line fill="none" stroke="#B5343A" stroke-width="0.5" stroke-linecap="round" stroke-linejoin="round" stroke-miterlimit="10" x1="7.097" y1="6.931" x2="16.85" y2="6.931"/>
<g>
	<path fill="#FFFFFF" d="M9.127,7.913C9.013,7.88,8.892,7.946,8.858,8.061C8.825,8.175,8.891,8.296,9.006,8.329
		c0.04,0.012,0.082,0.012,0.122,0h4.157c0.114,0.034,0.234-0.032,0.268-0.147c0.034-0.115-0.032-0.236-0.146-0.269
		c-0.039-0.012-0.082-0.012-0.121,0H9.127z"/>
	<path fill="#FFFFFF" d="M13.854,8.756H9.069c-0.359,0-0.65-0.291-0.65-0.65c0-0.359,0.292-0.65,0.65-0.65h4.785
		c0.115-0.034,0.181-0.154,0.147-0.27C13.98,7.116,13.925,7.06,13.854,7.04H9.069C8.479,7.041,8.001,7.519,8,8.108v5.653
		c0.001,0.59,0.479,1.068,1.069,1.069h4.785c0.12,0,0.217-0.098,0.217-0.217v-3.378l-0.048,0.05l-0.364,0.38l0,0v2.746H9.069
		c-0.359,0-0.65-0.291-0.65-0.65v-4.81c0.187,0.141,0.416,0.217,0.65,0.217h4.575v0.344l0.045-0.045
		c0.124-0.121,0.245-0.236,0.364-0.345l0,0V8.964C14.049,8.854,13.963,8.765,13.854,8.756z"/>
	<path fill="#FFFFFF" d="M11.993,12.534c0.1,0.094,0.238,0.035,0.332-0.064l0.237-0.252l-0.452-0.434l-0.236,0.252
		c-0.093,0.1-0.152,0.232-0.052,0.325l0.024,0.021c-0.185,0.145-0.446,0.14-0.625-0.013c0,0-0.574,0.254-0.514,0.815
		c0.012,0.266-0.073,0.525-0.24,0.732l0.65-0.702c-0.064-0.069-0.06-0.178,0.01-0.242c0.004-0.003,0.008-0.006,0.012-0.01
		c0.1-0.066,0.234-0.039,0.3,0.062c0.045,0.068,0.048,0.156,0.007,0.228c-0.063,0.071-0.17,0.087-0.251,0.036l-0.67,0.691
		c0.209-0.15,0.453-0.247,0.708-0.279c0.566,0.026,0.79-0.56,0.79-0.56c-0.163-0.169-0.185-0.428-0.053-0.622L11.993,12.534z"/>
	<path fill="#FFFFFF" d="M15.978,8.125c-0.164-0.154-1.196,0.679-2.334,1.891c-0.332,0.353-0.941,1.026-1.429,1.584l0.535,0.5
		c0.528-0.521,1.152-1.163,1.482-1.517C15.368,9.366,16.143,8.282,15.978,8.125z"/>
</g>
</svg>
