<?xml version="1.0" encoding="utf-8"?>
<!-- Generator: Adobe Illustrator 16.0.0, SVG Export Plug-In . SVG Version: 6.00 Build 0)  -->
<!DOCTYPE svg PUBLIC "-//W3C//DTD SVG 1.1//EN" "http://www.w3.org/Graphics/SVG/1.1/DTD/svg11.dtd">
<svg version="1.1" id="Capa_1" xmlns="http://www.w3.org/2000/svg" xmlns:xlink="http://www.w3.org/1999/xlink" x="0px" y="0px"
	 width="24px" height="24px" viewBox="0 0 24 24" enable-background="new 0 0 24 24" xml:space="preserve">
<circle fill="#FFFFFF" stroke="#FFFFFF" stroke-miterlimit="10" cx="12.001" cy="10.25" r="9"/>
<g id="Capa_1_1_" display="none">
	<circle display="inline" fill="#9A7D22" cx="12" cy="10.4" r="10"/>
</g>
<g id="Capa_3">
	<path fill="#B5343A" d="M11.997,0.001L11.997,0.001c-5.66-0.085-10.315,4.434-10.4,10.093c0,0.044,0,0.089,0,0.133
		c0,3.126,1.311,5.527,3.563,7.753c2.972,2.929,5.813,5.599,5.813,5.599c0.311,0.3,0.736,0.45,1.167,0.412v-0.412l0,0V24
		c0.367-0.079,0.715-0.232,1.021-0.455c0,0,2.741-2.74,5.696-5.652c2.254-2.221,3.547-4.533,3.547-7.677
		C22.376,4.547,17.759-0.027,12.09,0C12.06,0,12.028,0,11.997,0.001z M11.997,19c-4.946,0.003-8.957-4.004-8.959-8.949
		c-0.003-4.945,4.003-8.956,8.948-8.959c4.944-0.002,8.956,4.003,8.958,8.949c0,0.003,0,0.007,0,0.011
		C20.939,14.995,16.936,19,11.991,19H11.997z"/>
</g>
<line fill="none" stroke="#B5343A" stroke-width="0.25" stroke-linecap="round" stroke-linejoin="round" stroke-miterlimit="10" x1="12.024" y1="3.053" x2="12.024" y2="6.784"/>
<path fill="#B5343A" d="M12.348,3.034c0,0,1.044,0.615,2.232-0.368c0,0,0.9,0.025,0.98,0.278c0.082,0.254,0,1.973,0,1.973
	s-0.722-0.573-1.59,0c0,0-0.746,0.531-1.625,0"/>
<rect x="6.772" y="6.883" fill="#B5343A" stroke="#B5343A" stroke-width="0.25" stroke-linecap="round" stroke-linejoin="round" stroke-miterlimit="10" width="10.4" height="8.232"/>
<line fill="none" stroke="#B5343A" stroke-width="0.5" stroke-linecap="round" stroke-linejoin="round" stroke-miterlimit="10" x1="5.472" y1="15.293" x2="18.473" y2="15.293"/>
<line fill="none" stroke="#B5343A" stroke-width="0.5" stroke-linecap="round" stroke-linejoin="round" stroke-miterlimit="10" x1="7.097" y1="6.931" x2="16.85" y2="6.931"/>
<path fill="#FFFFFF" d="M16.037,11.28c-0.198-0.447-0.564-1.255-1.116-2.457c0.292-0.2,0.54-0.459,0.728-0.76
	c0.039-0.06,0.052-0.132,0.036-0.201c-0.014-0.069-0.056-0.128-0.116-0.165c-0.059-0.04-0.13-0.053-0.199-0.038
	c-0.068,0.015-0.129,0.057-0.167,0.116c-0.036,0.056-0.078,0.116-0.12,0.17L14.89,8.137L14.82,8.2
	c-0.085-0.079-0.197-0.123-0.313-0.123c-0.155-0.002-0.3,0.077-0.383,0.208c-0.332-0.127-0.813-0.349-1.34-0.612
	c-0.01-0.426-0.356-0.766-0.782-0.769h-0.018c-0.425,0.002-0.771,0.341-0.782,0.766c-0.525,0.264-1.005,0.485-1.34,0.612
	C9.78,8.151,9.635,8.072,9.479,8.075c-0.116,0-0.228,0.044-0.313,0.123L9.097,8.135L8.912,7.95C8.865,7.889,8.82,7.829,8.785,7.773
	C8.748,7.714,8.688,7.672,8.619,7.657c-0.145-0.03-0.287,0.063-0.316,0.208C8.289,7.933,8.301,8.003,8.338,8.062
	c0.188,0.3,0.437,0.559,0.73,0.759c-0.554,1.2-0.92,2.01-1.117,2.457l-0.033,0.076H7.5v0.067c0.03,1.098,0.913,1.98,2.01,2.011
	h0.036c1.095-0.027,1.967-0.926,1.961-2.022v-0.054h-0.447l-1.22-2.5c0.53-0.191,1.048-0.415,1.55-0.67
	c0.091,0.102,0.206,0.179,0.335,0.223v5.339c-0.087,0.026-0.171,0.063-0.25,0.106c-0.277,0.151-0.484,0.406-0.576,0.708h-0.505
	c-0.147,0.005-0.262,0.128-0.257,0.274c0.004,0.131,0.103,0.239,0.232,0.256h3.248c0.146-0.019,0.249-0.151,0.231-0.297
	c-0.016-0.129-0.123-0.228-0.254-0.233h-0.507c-0.093-0.305-0.301-0.561-0.581-0.712c-0.077-0.043-0.159-0.077-0.243-0.103V8.425
	c0.13-0.043,0.245-0.12,0.335-0.223c0.504,0.255,1.021,0.479,1.553,0.67l-1.215,2.484H12.49v0.065
	c-0.006,1.096,0.865,1.995,1.961,2.021h0.039c1.098-0.029,1.98-0.912,2.01-2.01v-0.067h-0.432
	C16.047,11.298,16.037,11.283,16.037,11.28z M10.469,11.356H8.503c0.132-0.277,0.306-0.67,0.489-1.074
	c0.147-0.331,0.306-0.684,0.46-1.017L10.469,11.356z M13.52,11.356l1.02-2.091c0.151,0.333,0.311,0.686,0.446,1.017
	c0.186,0.409,0.36,0.797,0.489,1.074H13.52z"/>
</svg>
