<?xml version="1.0" encoding="utf-8"?>
<!-- Generator: Adobe Illustrator 16.0.0, SVG Export Plug-In . SVG Version: 6.00 Build 0)  -->
<!DOCTYPE svg PUBLIC "-//W3C//DTD SVG 1.1//EN" "http://www.w3.org/Graphics/SVG/1.1/DTD/svg11.dtd">
<svg version="1.1" id="Capa_1" xmlns="http://www.w3.org/2000/svg" xmlns:xlink="http://www.w3.org/1999/xlink" x="0px" y="0px"
	 width="24px" height="24px" viewBox="0 0 24 24" enable-background="new 0 0 24 24" xml:space="preserve">
<circle fill="#FFFFFF" stroke="#FFFFFF" stroke-miterlimit="10" cx="12.001" cy="10.25" r="9"/>
<g id="Capa_1_1_" display="none">
	<circle display="inline" fill="#9A7D22" cx="12" cy="10.4" r="10"/>
</g>
<g id="Capa_3">
	<path fill="#B5343A" d="M11.997,0.001L11.997,0.001c-5.66-0.085-10.315,4.434-10.4,10.093c0,0.044,0,0.089,0,0.133
		c0,3.126,1.311,5.527,3.563,7.753c2.972,2.929,5.813,5.599,5.813,5.599c0.311,0.3,0.736,0.45,1.167,0.412v-0.412l0,0V24
		c0.367-0.079,0.715-0.232,1.021-0.455c0,0,2.741-2.74,5.696-5.652c2.254-2.221,3.547-4.533,3.547-7.677
		C22.376,4.547,17.759-0.027,12.09,0C12.06,0,12.028,0,11.997,0.001z M11.997,19c-4.946,0.003-8.957-4.004-8.959-8.949
		c-0.003-4.945,4.003-8.956,8.948-8.959c4.944-0.002,8.956,4.003,8.958,8.949c0,0.003,0,0.007,0,0.011
		C20.939,14.995,16.936,19,11.991,19H11.997z"/>
</g>
<line fill="none" stroke="#B5343A" stroke-width="0.25" stroke-linecap="round" stroke-linejoin="round" stroke-miterlimit="10" x1="12.024" y1="3.053" x2="12.024" y2="6.784"/>
<path fill="#B5343A" d="M12.348,3.034c0,0,1.044,0.615,2.232-0.368c0,0,0.9,0.025,0.98,0.278c0.082,0.254,0,1.973,0,1.973
	s-0.722-0.573-1.59,0c0,0-0.746,0.531-1.625,0"/>
<rect x="6.772" y="6.883" fill="#B5343A" stroke="#B5343A" stroke-width="0.25" stroke-linecap="round" stroke-linejoin="round" stroke-miterlimit="10" width="10.4" height="8.232"/>
<line fill="none" stroke="#B5343A" stroke-width="0.5" stroke-linecap="round" stroke-linejoin="round" stroke-miterlimit="10" x1="5.472" y1="15.293" x2="18.473" y2="15.293"/>
<line fill="none" stroke="#B5343A" stroke-width="0.5" stroke-linecap="round" stroke-linejoin="round" stroke-miterlimit="10" x1="7.097" y1="6.931" x2="16.85" y2="6.931"/>
<path fill="#FFFFFF" d="M12.076,13.82c-0.747,0.475-1.611,0.734-2.496,0.748c-0.881-0.036-1.74-0.294-2.496-0.748
	c0.075-0.395,0.517-1.527,1.393-2.059c0.339,0.186,0.719,0.286,1.105,0.294c0.387-0.004,0.767-0.104,1.105-0.292
	C11.557,12.295,11.999,13.426,12.076,13.82z"/>
<path fill="#FFFFFF" d="M7.087,11.232L7,11.322l1.597,0.032c0.595,0.393,1.367,0.393,1.961,0l1.595-0.032l-0.077-0.087
	c-0.444-0.578-0.651-1.302-0.582-2.027c0.05-0.541-0.131-1.079-0.499-1.479c-0.308-0.339-0.743-0.535-1.201-0.542
	c-0.379-0.015-0.749,0.127-1.023,0.39l-0.045,0.03H8.705C8.432,7.598,8.169,7.704,7.979,7.898c-0.25,0.287-0.37,0.746-0.314,1.372
	C7.748,9.976,7.54,10.685,7.087,11.232z M8.19,9.862C8.192,9.33,8.497,8.846,8.977,8.614c0.493,0.644,1.202,1.087,1.997,1.248
	c0,0.767-0.622,1.389-1.389,1.389c-0.767,0-1.389-0.622-1.389-1.389H8.19z"/>
<path fill="#FFFFFF" d="M14.492,12.022c0.969-0.004,1.76-0.778,1.784-1.747c0.187-0.427,0.157-0.917-0.08-1.317
	c-0.188-0.295-0.542-0.439-0.884-0.362c-0.459-0.434-1.125-0.567-1.717-0.344c-1.353,0.534-0.951,1.854-0.886,2.041
	C12.746,11.253,13.531,12.015,14.492,12.022z M15.176,9.088c0.162,0.403,0.4,0.773,0.699,1.09v0.018c0,0.013,0,0.025,0,0.038
	c0.016,0.765-0.591,1.397-1.355,1.414c-0.746,0.016-1.371-0.563-1.412-1.308C13.914,10.157,14.64,9.718,15.176,9.088z"/>
<path fill="#FFFFFF" d="M17,14.251c-0.746,0.476-1.61,0.734-2.496,0.749c-0.881-0.037-1.739-0.295-2.495-0.749
	c0.08-0.402,0.521-1.525,1.393-2.057c0.339,0.186,0.719,0.287,1.105,0.295c0.388-0.004,0.767-0.104,1.105-0.292
	C16.48,12.726,16.92,13.849,17,14.251z"/>
</svg>
