<?xml version="1.0" encoding="utf-8"?>
<!-- Generator: Adobe Illustrator 16.0.0, SVG Export Plug-In . SVG Version: 6.00 Build 0)  -->
<!DOCTYPE svg PUBLIC "-//W3C//DTD SVG 1.1//EN" "http://www.w3.org/Graphics/SVG/1.1/DTD/svg11.dtd">
<svg version="1.1" id="Capa_1" xmlns="http://www.w3.org/2000/svg" xmlns:xlink="http://www.w3.org/1999/xlink" x="0px" y="0px"
	 width="24px" height="24px" viewBox="0 0 24 24" enable-background="new 0 0 24 24" xml:space="preserve">
<circle fill="#FFFFFF" stroke="#FFFFFF" stroke-miterlimit="10" cx="12.001" cy="10.25" r="9"/>
<g id="Capa_1_1_" display="none">
	<circle display="inline" fill="#9A7D22" cx="12" cy="10.4" r="10"/>
</g>
<g id="Capa_3">
	<path fill="#B5343A" d="M11.997,0.001L11.997,0.001c-5.66-0.085-10.315,4.434-10.4,10.093c0,0.044,0,0.089,0,0.133
		c0,3.126,1.311,5.527,3.563,7.753c2.972,2.929,5.813,5.599,5.813,5.599c0.311,0.3,0.736,0.45,1.167,0.412v-0.412l0,0V24
		c0.367-0.079,0.715-0.232,1.021-0.455c0,0,2.741-2.74,5.696-5.652c2.254-2.221,3.547-4.533,3.547-7.677
		C22.376,4.547,17.759-0.027,12.09,0C12.06,0,12.028,0,11.997,0.001z M11.997,19c-4.946,0.003-8.957-4.004-8.959-8.949
		c-0.003-4.945,4.003-8.956,8.948-8.959c4.944-0.002,8.956,4.003,8.958,8.949c0,0.003,0,0.007,0,0.011
		C20.939,14.995,16.936,19,11.991,19H11.997z"/>
</g>
<line fill="none" stroke="#B5343A" stroke-width="0.25" stroke-linecap="round" stroke-linejoin="round" stroke-miterlimit="10" x1="12.024" y1="3.053" x2="12.024" y2="6.784"/>
<path fill="#B5343A" d="M12.348,3.034c0,0,1.044,0.615,2.232-0.368c0,0,0.9,0.025,0.98,0.278c0.082,0.254,0,1.973,0,1.973
	s-0.722-0.573-1.59,0c0,0-0.746,0.531-1.625,0"/>
<rect x="6.772" y="6.784" fill="#B5343A" stroke="#B5343A" stroke-width="0.25" stroke-linecap="round" stroke-linejoin="round" stroke-miterlimit="10" width="10.4" height="8.509"/>
<line fill="none" stroke="#B5343A" stroke-width="0.5" stroke-linecap="round" stroke-linejoin="round" stroke-miterlimit="10" x1="5.472" y1="15.293" x2="18.473" y2="15.293"/>
<line fill="none" stroke="#B5343A" stroke-width="0.5" stroke-linecap="round" stroke-linejoin="round" stroke-miterlimit="10" x1="7.097" y1="6.931" x2="16.85" y2="6.931"/>
<path fill="#B5343A" stroke="#FFFFFF" stroke-width="0.25" stroke-linecap="round" stroke-linejoin="round" stroke-miterlimit="10" d="
	M12.152,7.292c-0.076-0.056-0.179-0.056-0.255,0L8.615,9.67c-0.057,0.041-0.09,0.106-0.09,0.177v4.762
	c0,0.119,0.098,0.217,0.217,0.217l0,0h6.565c0.121,0,0.218-0.098,0.218-0.217l0,0V9.847c0-0.07-0.033-0.136-0.09-0.177L12.152,7.292
	z M12.657,14.381h-1.267v-2.514h1.271L12.657,14.381z M15.086,14.381h-1.989v-2.731c0-0.12-0.098-0.218-0.218-0.218l0,0h-1.705
	c-0.12,0-0.218,0.098-0.218,0.218l0,0v2.731H8.963V9.955l3.072-2.222l3.065,2.222L15.086,14.381z"/>
</svg>
