<?xml version="1.0" encoding="utf-8"?>
<!-- Generator: Adobe Illustrator 16.0.0, SVG Export Plug-In . SVG Version: 6.00 Build 0)  -->
<!DOCTYPE svg PUBLIC "-//W3C//DTD SVG 1.1//EN" "http://www.w3.org/Graphics/SVG/1.1/DTD/svg11.dtd">
<svg version="1.1" id="Capa_1" xmlns="http://www.w3.org/2000/svg" xmlns:xlink="http://www.w3.org/1999/xlink" x="0px" y="0px"
	 width="24px" height="24px" viewBox="0 0 24 24" enable-background="new 0 0 24 24" xml:space="preserve">
<circle fill="#FFFFFF" stroke="#FFFFFF" stroke-miterlimit="10" cx="12.001" cy="10.25" r="9"/>
<g id="Capa_1_1_" display="none">
	<circle display="inline" fill="#9A7D22" cx="12" cy="10.4" r="10"/>
</g>
<g id="Capa_3">
	<path fill="#B5343A" d="M11.997,0.001L11.997,0.001c-5.66-0.085-10.315,4.434-10.4,10.093c0,0.044,0,0.089,0,0.133
		c0,3.126,1.311,5.527,3.563,7.753c2.972,2.929,5.813,5.599,5.813,5.599c0.311,0.3,0.736,0.45,1.167,0.412v-0.412l0,0V24
		c0.367-0.079,0.715-0.232,1.021-0.455c0,0,2.741-2.74,5.696-5.652c2.254-2.221,3.547-4.533,3.547-7.677
		C22.376,4.547,17.759-0.027,12.09,0C12.06,0,12.028,0,11.997,0.001z M11.997,19c-4.946,0.003-8.957-4.004-8.959-8.949
		c-0.003-4.945,4.003-8.956,8.948-8.959c4.944-0.002,8.956,4.003,8.958,8.949c0,0.003,0,0.007,0,0.011
		C20.939,14.995,16.936,19,11.991,19H11.997z"/>
</g>
<line fill="none" stroke="#B5343A" stroke-width="0.25" stroke-linecap="round" stroke-linejoin="round" stroke-miterlimit="10" x1="12.024" y1="3.053" x2="12.024" y2="6.784"/>
<path fill="#B5343A" d="M12.348,3.034c0,0,1.044,0.615,2.232-0.368c0,0,0.9,0.025,0.98,0.278c0.082,0.254,0,1.973,0,1.973
	s-0.722-0.573-1.59,0c0,0-0.746,0.531-1.625,0"/>
<rect x="6.772" y="6.883" fill="#B5343A" stroke="#B5343A" stroke-width="0.25" stroke-linecap="round" stroke-linejoin="round" stroke-miterlimit="10" width="10.4" height="8.232"/>
<line fill="none" stroke="#B5343A" stroke-width="0.5" stroke-linecap="round" stroke-linejoin="round" stroke-miterlimit="10" x1="5.472" y1="15.293" x2="18.473" y2="15.293"/>
<line fill="none" stroke="#B5343A" stroke-width="0.5" stroke-linecap="round" stroke-linejoin="round" stroke-miterlimit="10" x1="7.097" y1="6.931" x2="16.85" y2="6.931"/>
<g>
	<path fill="#FFFFFF" d="M13.242,14.991h-2.485c-0.418-0.001-0.756-0.34-0.757-0.758V7.865c0.001-0.418,0.339-0.757,0.757-0.758
		h2.485C13.66,7.108,13.999,7.447,14,7.865v6.367C14,14.65,13.661,14.99,13.242,14.991z M10.757,7.475
		c-0.214,0-0.388,0.174-0.388,0.388l0,0v6.37c0,0.214,0.174,0.388,0.388,0.388l0,0h2.485c0.215,0.005,0.393-0.165,0.396-0.38
		c0-0.003,0-0.005,0-0.008V7.865c0-0.214-0.174-0.388-0.389-0.388l0,0L10.757,7.475z"/>
	<path fill="#FFFFFF" d="M12,8.015c0.427,0,0.774,0.347,0.774,0.774S12.427,9.563,12,9.563s-0.774-0.347-0.774-0.774l0,0
		C11.226,8.361,11.573,8.015,12,8.015 M12,7.736c-0.583,0-1.055,0.472-1.055,1.055S11.417,9.846,12,9.846
		c0.583,0,1.055-0.473,1.055-1.055S12.583,7.736,12,7.736z"/>
	<path fill="#FFFFFF" d="M11.605,8.709c-0.046-0.001-0.083-0.039-0.083-0.086c0-0.013,0.003-0.025,0.009-0.037
		c0.084-0.174,0.264-0.283,0.458-0.276c0.046,0.007,0.078,0.051,0.07,0.097c-0.006,0.036-0.034,0.064-0.07,0.07
		c-0.132-0.007-0.254,0.067-0.31,0.188C11.665,8.692,11.636,8.709,11.605,8.709z"/>
	<path fill="#FFFFFF" d="M12,10.274c0.427,0,0.774,0.347,0.774,0.774c0,0.427-0.347,0.774-0.774,0.774s-0.774-0.347-0.774-0.774l0,0
		C11.226,10.621,11.573,10.274,12,10.274 M12,9.996c-0.583,0-1.055,0.472-1.055,1.055c0,0.583,0.473,1.055,1.055,1.055
		c0.583,0,1.055-0.472,1.055-1.055C13.055,10.468,12.583,9.996,12,9.996z"/>
	<path fill="#FFFFFF" d="M11.605,10.968c-0.046-0.001-0.083-0.04-0.083-0.086c0-0.013,0.003-0.025,0.009-0.036
		c0.087-0.172,0.268-0.277,0.46-0.268c0.046,0.007,0.077,0.05,0.07,0.097c-0.006,0.036-0.034,0.064-0.07,0.07
		c-0.132-0.007-0.255,0.067-0.311,0.188C11.665,10.958,11.636,10.971,11.605,10.968z"/>
	<path fill="#FFFFFF" d="M12,12.536c0.427,0,0.774,0.346,0.774,0.774c0,0.427-0.347,0.773-0.774,0.773s-0.774-0.347-0.774-0.773l0,0
		C11.226,12.882,11.573,12.536,12,12.536 M12,12.257c-0.583,0-1.055,0.472-1.055,1.054c0,0.584,0.473,1.056,1.055,1.056
		c0.583,0,1.055-0.472,1.055-1.056C13.055,12.729,12.583,12.257,12,12.257z"/>
	<path fill="#FFFFFF" d="M11.605,13.229c-0.046,0-0.084-0.037-0.084-0.084c0-0.013,0.003-0.025,0.008-0.035
		c0.084-0.175,0.264-0.283,0.458-0.277c0.046,0.008,0.078,0.051,0.07,0.098c-0.006,0.035-0.034,0.063-0.07,0.069
		c-0.132-0.007-0.255,0.067-0.31,0.188C11.663,13.214,11.635,13.229,11.605,13.229z"/>
</g>
</svg>
