<?xml version="1.0" encoding="utf-8"?>
<!-- Generator: Adobe Illustrator 16.0.0, SVG Export Plug-In . SVG Version: 6.00 Build 0)  -->
<!DOCTYPE svg PUBLIC "-//W3C//DTD SVG 1.1//EN" "http://www.w3.org/Graphics/SVG/1.1/DTD/svg11.dtd">
<svg version="1.1" id="Capa_1" xmlns="http://www.w3.org/2000/svg" xmlns:xlink="http://www.w3.org/1999/xlink" x="0px" y="0px"
	 width="24px" height="24px" viewBox="0 0 24 24" enable-background="new 0 0 24 24" xml:space="preserve">
<circle fill="#FFFFFF" stroke="#FFFFFF" stroke-miterlimit="10" cx="12.001" cy="10.25" r="9"/>
<g id="Capa_1_1_" display="none">
	<circle display="inline" fill="#9A7D22" cx="12" cy="10.4" r="10"/>
</g>
<g id="Capa_3">
	<path fill="#B5343A" d="M11.997,0.001L11.997,0.001c-5.66-0.085-10.315,4.434-10.4,10.093c0,0.044,0,0.089,0,0.133
		c0,3.126,1.311,5.527,3.563,7.753c2.972,2.929,5.813,5.599,5.813,5.599c0.311,0.3,0.736,0.45,1.167,0.412v-0.412l0,0V24
		c0.367-0.079,0.715-0.232,1.021-0.455c0,0,2.741-2.74,5.696-5.652c2.254-2.221,3.547-4.533,3.547-7.677
		C22.376,4.547,17.759-0.027,12.09,0C12.06,0,12.028,0,11.997,0.001z M11.997,19c-4.946,0.003-8.957-4.004-8.959-8.949
		c-0.003-4.945,4.003-8.956,8.948-8.959c4.944-0.002,8.956,4.003,8.958,8.949c0,0.003,0,0.007,0,0.011
		C20.939,14.995,16.936,19,11.991,19H11.997z"/>
</g>
<line fill="none" stroke="#B5343A" stroke-width="0.25" stroke-linecap="round" stroke-linejoin="round" stroke-miterlimit="10" x1="12.024" y1="3.053" x2="12.024" y2="6.784"/>
<path fill="#B5343A" d="M12.348,3.034c0,0,1.044,0.615,2.232-0.368c0,0,0.9,0.025,0.98,0.278c0.082,0.254,0,1.973,0,1.973
	s-0.722-0.573-1.59,0c0,0-0.746,0.531-1.625,0"/>
<rect x="6.772" y="6.784" fill="#B5343A" stroke="#B5343A" stroke-width="0.25" stroke-linecap="round" stroke-linejoin="round" stroke-miterlimit="10" width="10.4" height="8.509"/>
<line fill="none" stroke="#B5343A" stroke-width="0.5" stroke-linecap="round" stroke-linejoin="round" stroke-miterlimit="10" x1="5.472" y1="15.293" x2="18.473" y2="15.293"/>
<line fill="none" stroke="#B5343A" stroke-width="0.5" stroke-linecap="round" stroke-linejoin="round" stroke-miterlimit="10" x1="7.097" y1="6.931" x2="16.85" y2="6.931"/>
<g>
	<path fill="#B5343A" stroke="#FFFFFF" stroke-width="0.5" stroke-miterlimit="10" d="M10.097,9.924
		c0.178,0.133,0.393,0.206,0.615,0.209c0.085,0,0.17-0.013,0.252-0.037c0.627-0.258,0.928-0.976,0.669-1.604l0,0
		c-0.09-0.333-0.289-0.624-0.565-0.83c-0.244-0.189-0.562-0.252-0.86-0.172C9.58,7.749,9.28,8.467,9.538,9.095l0,0
		C9.626,9.426,9.823,9.718,10.097,9.924z"/>
	<path fill="#B5343A" stroke="#FFFFFF" stroke-width="0.5" stroke-miterlimit="10" d="M7.78,10.354
		c-0.213,0.22-0.313,0.526-0.27,0.83c0.099,0.696,0.639,1.247,1.333,1.357h0.154c0.249,0.005,0.488-0.088,0.669-0.257
		c0.214-0.22,0.314-0.526,0.271-0.83c-0.043-0.34-0.199-0.656-0.443-0.897C9.075,10.032,8.311,9.941,7.78,10.354z"/>
	<path fill="#B5343A" stroke="#FFFFFF" stroke-width="0.5" stroke-miterlimit="10" d="M10.398,14.877
		c0.095,0.002,0.19-0.009,0.283-0.031c0.431-0.083,0.87-0.127,1.309-0.136c0.439,0.009,0.878,0.053,1.309,0.136
		c0.39,0.093,0.801-0.002,1.112-0.259c0.218-0.213,0.301-0.529,0.215-0.822c-0.096-0.364-0.312-0.686-0.615-0.909
		c-0.368-0.299-0.615-0.719-0.7-1.186c-0.07-0.733-0.722-1.271-1.454-1.2c-0.635,0.061-1.138,0.564-1.199,1.2
		c-0.085,0.47-0.339,0.894-0.713,1.192c-0.302,0.225-0.519,0.545-0.614,0.91c-0.087,0.292-0.004,0.608,0.215,0.822
		C9.783,14.793,10.087,14.893,10.398,14.877z"/>
	<path fill="#B5343A" stroke="#FFFFFF" stroke-width="0.5" stroke-miterlimit="10" d="M13.169,10.096
		c0.081,0.024,0.165,0.037,0.252,0.037c0.221-0.003,0.436-0.077,0.615-0.209c0.273-0.206,0.475-0.498,0.563-0.83
		c0.257-0.628-0.044-1.346-0.673-1.603c0,0-0.002,0-0.004,0c-0.297-0.081-0.615-0.017-0.859,0.172
		c-0.564,0.43-0.778,1.179-0.527,1.843C12.646,9.79,12.878,10.007,13.169,10.096z"/>
	<path fill="#B5343A" stroke="#FFFFFF" stroke-width="0.5" stroke-miterlimit="10" d="M15.153,12.541
		c0.693-0.111,1.234-0.662,1.333-1.357c0.086-0.515-0.261-1.003-0.775-1.09c-0.109-0.019-0.222-0.018-0.33,0.002
		c-0.694,0.112-1.234,0.662-1.335,1.358c-0.042,0.303,0.059,0.61,0.271,0.83c0.185,0.175,0.429,0.27,0.682,0.264L15.153,12.541z"/>
</g>
</svg>
